<svg width="76" height="34" viewBox="0 0 76 34" fill="none" xmlns="http://www.w3.org/2000/svg">
<g clip-path="url(#clip0_2539_4498)">
<path d="M67.6479 34H2.76562V0H67.6479V34Z" fill="#B800CC"/>
<path d="M62.7271 -9.53674e-07H75.9999V1.19718C75.4083 1.19718 74.9309 1.67989 74.9309 2.27369C74.9309 2.86749 75.4102 3.3502 75.9999 3.3502V4.49375C75.4083 4.49375 74.9309 4.97645 74.9309 5.57025C74.9309 6.16406 75.4102 6.64676 75.9999 6.64676V7.79031C75.4083 7.79031 74.9309 8.27301 74.9309 8.86681C74.9309 9.46253 75.4102 9.94332 75.9999 9.94332V11.0869C75.4083 11.0869 74.9309 11.5696 74.9309 12.1634C74.9309 12.7591 75.4102 13.2399 75.9999 13.2399V14.3834C75.4083 14.3834 74.9309 14.8661 74.9309 15.4599C74.9309 16.0557 75.4102 16.5365 75.9999 16.5365V17.68C75.4083 17.68 74.9309 18.1627 74.9309 18.7565C74.9309 19.3503 75.4102 19.833 75.9999 19.833V20.9766C75.4083 20.9766 74.9309 21.4593 74.9309 22.055C74.9309 22.6507 75.4102 23.1315 75.9999 23.1315V24.275C75.4083 24.275 74.9309 24.7577 74.9309 25.3515C74.9309 25.9473 75.4102 26.4281 75.9999 26.4281V27.5716C75.4083 27.5716 74.9309 28.0543 74.9309 28.6481C74.9309 29.2419 75.4102 29.7246 75.9999 29.7246V30.8682C75.4083 30.8682 74.9309 31.3509 74.9309 31.9447C74.9309 32.5385 75.4083 33.0423 75.9999 33.0423V34H62.7271V-9.53674e-07Z" fill="white"/>
<path d="M13.2728 34H0V32.8028C0.591551 32.8028 1.06898 32.3201 1.06898 31.7263C1.06898 31.1325 0.591551 30.6479 0 30.6479V29.5043C0.591551 29.5043 1.06898 29.0216 1.06898 28.4278C1.06898 27.834 0.591551 27.3494 0 27.3494V26.2059C0.591551 26.2059 1.06898 25.7232 1.06898 25.1294C1.06898 24.5336 0.589649 24.0528 0 24.0528V22.9093C0.591551 22.9093 1.06898 22.4266 1.06898 21.8328C1.06898 21.2371 0.589649 20.7544 0 20.7544V19.6108C0.591551 19.6108 1.06898 19.1281 1.06898 18.5343C1.06898 17.9386 0.589649 17.4578 0 17.4578V16.3143C0.591551 16.3143 1.06898 15.8315 1.06898 15.2377C1.06898 14.6439 0.589649 14.1612 0 14.1612V13.0177C0.591551 13.0177 1.06898 12.535 1.06898 11.9412C1.06898 11.3455 0.589649 10.8647 0 10.8647V9.72113C0.591551 9.72113 1.06898 9.23842 1.06898 8.64462C1.06898 8.0489 0.589649 7.56811 0 7.56811V6.42456C0.591551 6.42456 1.06898 5.94186 1.06898 5.34806C1.06898 4.75425 0.589649 4.27155 0 4.27155V3.128C0.591551 3.128 1.06898 2.6453 1.06898 2.05149C1.06898 1.45769 0.591551 0.957746 0 0.957746V-9.53674e-07H13.2728V34Z" fill="#4B00B7"/>
</g>
<defs>
<clipPath id="clip0_2539_4498">
<rect width="76" height="34" fill="white" transform="matrix(1 0 0 -1 0 34)"/>
</clipPath>
</defs>
</svg>
