<svg width="43" height="40" viewBox="0 0 43 40" fill="none" xmlns="http://www.w3.org/2000/svg">
<path d="M37.696 7.54919C32.5602 0.989276 23.7675 0.579419 23.2237 0.555884C16.289 0.255717 11.3387 3.55577 9.55373 4.78437C8.25796 5.67621 6.45959 6.93564 4.78082 9.15008C4.0148 10.1605 1.34865 13.9091 1.30618 18.9529C1.24025 26.794 7.56451 31.8971 8.71265 32.7862C14.9235 37.5956 25.7859 39.9904 33.9336 34.5044C43.5029 28.0613 43.4057 14.8424 37.696 7.54919Z" fill="#F4F7FA"/>
<path d="M39.3631 20.8093C39.3631 28.8558 32.3757 35.677 23.4611 36.0572C14.2026 36.4522 6.43066 29.7978 6.43066 21.1802C6.43066 12.5626 14.2026 5.73305 23.4611 5.91953C32.3757 6.099 39.3631 12.7627 39.3631 20.8093Z" fill="url(#paint0_linear_2539_4766)"/>
<path d="M40.3982 20.8093C40.3982 28.8558 33.4109 35.677 24.4963 36.0572C15.2377 36.4522 7.46582 29.7978 7.46582 21.1802C7.46582 12.5626 15.2377 5.73305 24.4963 5.91953C33.4109 6.099 40.3982 12.7627 40.3982 20.8093Z" fill="url(#paint1_linear_2539_4766)"/>
<path d="M39.4145 20.8203C39.4145 28.4019 32.8236 34.8169 24.4312 35.1592C15.7347 35.5139 8.4502 29.2555 8.4502 21.169C8.4502 13.0825 15.7348 6.65998 24.4312 6.8188C32.8234 6.97212 39.4145 13.2386 39.4145 20.8203Z" fill="url(#paint2_linear_2539_4766)"/>
<path d="M21.0481 21.5469C21.7229 20.7294 22.0605 19.5069 22.0605 17.8789C22.0605 16.3219 21.7173 15.1238 21.031 14.2851C20.3444 13.4464 19.3603 13.0271 18.0787 13.0271C15.4621 13.0271 14.1538 14.6445 14.1538 17.8789C14.1538 19.4644 14.4951 20.6763 15.1776 21.515C15.8603 22.3537 16.8272 22.7731 18.0786 22.7731C19.3832 22.7731 20.3729 22.3643 21.0481 21.5469ZM18.1016 20.5754C17.7222 20.5754 17.4473 20.3543 17.2769 19.9119C17.1062 19.4697 17.0208 18.7991 17.0208 17.9001C17.0208 17.0014 17.1062 16.3341 17.2769 15.8988C17.4475 15.4635 17.7222 15.2459 18.1016 15.2459C18.8297 15.2459 19.1938 16.1307 19.1938 17.9001C19.1937 19.6837 18.8297 20.5754 18.1016 20.5754Z" fill="white"/>
<path d="M32.6804 20.4853C31.9939 19.6466 31.0099 19.2272 29.7281 19.2272C27.1115 19.2272 25.8032 20.8446 25.8032 24.079C25.8032 25.6573 26.1446 26.8659 26.8272 27.7046C27.5097 28.5433 28.4767 28.9626 29.7281 28.9626C31.0326 28.9626 32.0223 28.5539 32.6973 27.7364C33.3722 26.9188 33.7099 25.6999 33.7099 24.079C33.7099 22.5219 33.3668 21.324 32.6804 20.4853ZM29.751 26.7754C29.3717 26.7754 29.0968 26.5543 28.9261 26.1119C28.7555 25.6697 28.6701 24.9991 28.6701 24.1001C28.6701 23.2014 28.7555 22.5341 28.9261 22.0988C29.0968 21.6635 29.3717 21.4459 29.751 21.4459C30.4791 21.4459 30.8431 22.3307 30.8431 24.1001C30.8431 25.8837 30.4789 26.7754 29.751 26.7754Z" fill="white"/>
<path d="M29.5849 13.4117C29.5199 13.3087 29.4013 13.2408 29.2731 13.2408H27.5863C27.3215 13.2408 27.0776 13.3794 26.9491 13.5955L18.2291 28.2675C18.1668 28.3721 18.1686 28.5031 18.2336 28.6062C18.2987 28.7093 18.4173 28.776 18.5454 28.776H20.4482C20.5798 28.776 20.7008 28.7071 20.7647 28.5999L29.5895 13.7505C29.6517 13.6459 29.65 13.5148 29.5849 13.4117Z" fill="white"/>
<g opacity="0.3">
<path opacity="0.3" d="M17.3206 14.5192C16.7732 12.8539 16.7982 10.3247 19.4681 6.588C12.5809 8.43951 7.46582 14.2678 7.46582 21.2396C7.46582 29.8572 15.2377 36.5115 24.4963 36.1167C27.9102 35.9711 31.0357 34.8837 33.5898 33.1582C33.5106 30.86 32.9748 28.3443 31.4681 26.0239C27.3251 19.6434 19.0385 19.7439 17.3206 14.5192Z" fill="url(#paint3_linear_2539_4766)"/>
</g>
<mask id="mask0_2539_4766" style="mask-type:luminance" maskUnits="userSpaceOnUse" x="0" y="0" width="36" height="25">
<path d="M21.7143 0C6.20377 0 4.4486 12.3642 4.4486 12.3642H0V13.4878L8.745 24.7114L19.4306 11.6826H15.2218L21.1776 5.16753C21.1776 5.16753 28.0222 6.30888 30.3847 7.04932C33.4377 8.0997 35.8386 10.4834 35.8386 10.4834C35.8386 10.4834 33.4545 0 21.7143 0Z" fill="white"/>
</mask>
<g mask="url(#mask0_2539_4766)">
<path d="M35.5111 12.6661V12.713C35.0483 12.1515 34.2193 11.3714 33.7229 10.9196C33.7136 10.8996 33.6981 10.8797 33.6888 10.8597C33.4119 10.2693 33.0381 9.63027 32.5503 8.99236C32.0657 8.35266 31.4498 7.72301 30.7318 7.14318C30.6459 7.06804 30.5465 7.00157 30.4546 6.93055C30.4077 6.89587 30.3603 6.86008 30.3127 6.8254L30.2431 6.77255C30.2186 6.75494 30.1934 6.73911 30.1689 6.72204C30.0704 6.65571 29.9719 6.58868 29.8726 6.5211L29.7986 6.4706L29.7206 6.42366C29.6689 6.39201 29.6175 6.36022 29.5659 6.32911C29.3623 6.19809 29.1427 6.08469 28.9286 5.96495C28.8195 5.90673 28.7052 5.85333 28.5941 5.79814C28.5392 5.77048 28.4831 5.74227 28.4269 5.71529C28.3694 5.68997 28.3112 5.66423 28.2543 5.63891C27.3367 5.22712 26.3357 4.9293 25.3091 4.76538C25.1808 4.74653 25.0527 4.72781 24.923 4.70895C24.7941 4.69313 24.6632 4.68308 24.535 4.66959L24.3406 4.65019L24.1457 4.64083L23.9507 4.63023C23.8859 4.62734 23.8218 4.62142 23.7563 4.62266C23.6267 4.62211 23.4972 4.62087 23.367 4.62032C23.3353 4.62032 23.3009 4.61853 23.2711 4.62032L23.1845 4.62445L23.0114 4.63271L22.8394 4.64028C22.8242 4.64083 22.8136 4.64083 22.7939 4.64207L22.6173 4.65376L22.3813 4.66849L22.2048 4.68019L22.175 4.68198L22.1644 4.68253C22.1644 4.68308 22.1029 4.68253 22.2061 4.68432L21.8246 4.73428C21.7618 4.74309 21.6984 4.74832 21.6355 4.7607L21.4485 4.79415L21.2614 4.82704L21.1682 4.84355C21.1371 4.84878 21.1067 4.85704 21.0763 4.86351C20.954 4.89117 20.8318 4.91815 20.7101 4.94636C20.6486 4.95806 20.5892 4.97692 20.5296 4.99274L20.3511 5.0427L20.1727 5.09032L19.9982 5.1473C19.8818 5.18611 19.7655 5.2201 19.6525 5.26126C19.5401 5.30351 19.4272 5.3459 19.3154 5.3887C18.4262 5.73993 17.6269 6.1941 16.9467 6.71268L16.8184 6.80778L16.6967 6.90935C16.616 6.97638 16.5327 7.04038 16.456 7.10905C16.4528 7.11139 16.4501 7.11497 16.4467 7.11731C16.2973 7.2548 16.1459 7.38403 16.0117 7.5262C15.976 7.56089 15.9409 7.59612 15.9065 7.63135L15.8536 7.6831L15.8046 7.73829C15.7391 7.80999 15.6744 7.88225 15.6096 7.95326C15.5937 7.97088 15.5766 7.98795 15.5607 8.00611L15.5164 8.0613C15.486 8.09832 15.4563 8.13535 15.4265 8.17113C15.3684 8.24517 15.3048 8.3133 15.2526 8.38968C14.811 8.97708 14.4745 9.56448 14.2457 10.1249C14.0149 10.6841 13.8782 11.2087 13.7995 11.6721C13.7909 11.7303 13.7822 11.7873 13.7736 11.8436C13.7664 11.8993 13.7539 11.954 13.7512 12.0086C13.7413 12.1179 13.7313 12.2218 13.7214 12.3212C13.7148 12.4222 13.7148 12.5191 13.7102 12.6102C13.7083 12.656 13.7049 12.7006 13.7043 12.7436C13.7062 12.7876 13.7076 12.8305 13.7083 12.8715C13.7096 12.9544 13.711 13.0324 13.7123 13.1054C13.7117 13.1259 13.7157 13.1365 13.717 13.1507C13.7189 13.1641 13.721 13.1776 13.7229 13.1906C13.7256 13.2164 13.7296 13.2129 13.7322 13.2364C13.7341 13.2564 13.7368 13.2657 13.7388 13.2657H18.0908L15.4465 15.8709L9.29894 21.8449L0.505859 13.2659H5.12893C5.13557 13.2659 5.14279 13.1954 5.15002 13.1402C5.16787 13.021 5.18704 12.9046 5.20813 12.7631C5.22007 12.6926 5.23054 12.6268 5.24323 12.551C5.24986 12.514 5.25576 12.4788 5.2624 12.4399C5.2683 12.4018 5.27435 12.3607 5.2829 12.3272C5.31535 12.1851 5.34897 12.0353 5.38466 11.8755C5.40383 11.7963 5.42242 11.7152 5.44218 11.6318C5.46342 11.5484 5.48849 11.4637 5.51356 11.3769C5.56385 11.2036 5.61267 11.0215 5.67358 10.8341C5.73832 10.6479 5.80587 10.4547 5.87518 10.2537C5.90896 10.1527 5.9532 10.0535 5.9942 9.95066C6.03579 9.84964 6.07885 9.7456 6.12251 9.6399C6.48148 8.80284 6.9714 7.89119 7.62651 6.97473C8.27897 6.05771 9.11002 5.14427 10.0964 4.29731C10.216 4.18858 10.3483 4.08935 10.4758 3.98544C10.5406 3.93438 10.6047 3.88263 10.6695 3.83089L10.768 3.7534L10.8684 3.67936C11.004 3.58123 11.1408 3.482 11.277 3.38277L11.38 3.30872L11.4871 3.23826C11.5592 3.19064 11.6306 3.14371 11.7026 3.09664C11.9849 2.90451 12.2884 2.73124 12.5898 2.55273C12.7419 2.46575 12.8992 2.38469 13.0559 2.30073C13.1331 2.25958 13.2119 2.21843 13.2905 2.17618C13.3712 2.13737 13.4518 2.0987 13.5324 2.05988C14.8188 1.43368 16.2403 0.958446 17.7158 0.674106C17.9003 0.641763 18.086 0.60887 18.2711 0.576527C18.4562 0.545974 18.6446 0.524779 18.831 0.499593L19.1114 0.46436L19.3937 0.439725L19.6752 0.41564C19.7692 0.40807 19.8624 0.398574 19.9569 0.395684C20.1447 0.388114 20.3331 0.36802 20.5215 0.360451C20.5678 0.358662 20.6153 0.342834 20.6623 0.342834H20.8037L21.0847 0.356873L21.3656 0.36513C21.4594 0.36513 21.5534 0.376278 21.6466 0.380407L22.2053 0.41041C22.3322 0.412199 22.2489 0.4133 22.2812 0.413988L22.2957 0.415777L22.3255 0.418668L22.3836 0.425687L22.5012 0.438624L22.7353 0.464498L22.853 0.477435L22.9111 0.483903L22.9832 0.492712L23.2794 0.531523L23.5755 0.571435L23.7222 0.591942C23.7705 0.598961 23.8135 0.608457 23.8597 0.616577C24.0402 0.650709 24.2206 0.685254 24.4011 0.718835C24.4911 0.734662 24.5795 0.757646 24.6682 0.778153L24.9347 0.841049L25.1991 0.903945L25.4602 0.977438C25.6333 1.0274 25.8072 1.07433 25.9771 1.12842C26.147 1.18484 26.3155 1.24113 26.4841 1.29756C27.8216 1.7699 29.0419 2.4001 30.091 3.1338C30.1571 3.17908 30.2226 3.22491 30.2881 3.27005C30.3522 3.31698 30.4151 3.3646 30.4779 3.41277C30.6035 3.50787 30.7298 3.59953 30.8507 3.69711C31.0893 3.89626 31.3274 4.08715 31.5449 4.29387C31.6004 4.34438 31.6546 4.39544 31.7102 4.4454L31.7915 4.52054L31.8695 4.59871C31.9733 4.70331 32.0757 4.80722 32.1769 4.91003L32.2528 4.98751L32.3255 5.06734C32.3724 5.12074 32.4206 5.17372 32.4677 5.22657C32.5615 5.33296 32.6601 5.43398 32.7447 5.54381C33.224 6.11882 33.6298 6.70154 33.9656 7.27613C34.1296 7.55511 34.2757 7.83298 34.4047 8.10727C34.8033 8.94488 35.0592 9.74202 35.2204 10.4522C35.2383 10.5415 35.2574 10.629 35.2753 10.7153C35.2924 10.8011 35.3129 10.885 35.3242 10.9691C35.3493 11.1365 35.3745 11.2969 35.3977 11.4514C35.4176 11.6065 35.4281 11.7557 35.4427 11.8973C35.4486 11.9677 35.4565 12.0366 35.4611 12.1047C35.4638 12.1717 35.4797 12.2375 35.4829 12.302C35.4879 12.43 35.5111 12.5528 35.5111 12.6661Z" fill="url(#paint4_linear_2539_4766)"/>
<path opacity="0.4" d="M35.5111 12.6661V12.713C35.0483 12.1515 34.2194 11.3714 33.7229 10.9196C33.7136 10.8996 33.6982 10.8797 33.6889 10.8597C33.4119 10.2693 33.0382 9.63027 32.5503 8.99236C32.0657 8.35266 31.4498 7.72301 30.7319 7.14319C30.6459 7.06804 30.5465 7.00157 30.4546 6.93055C30.4077 6.89587 30.3604 6.86008 30.3127 6.8254L30.2431 6.77255C30.2187 6.75494 30.1934 6.73911 30.169 6.72204C30.0704 6.65571 29.9719 6.58868 29.8727 6.52111L29.7986 6.4706L29.7206 6.42366C29.669 6.39201 29.6175 6.36022 29.5659 6.32911C29.3624 6.19809 29.1428 6.08469 28.9286 5.96495C28.8195 5.90673 28.7052 5.85333 28.5942 5.79814C28.5393 5.77048 28.4831 5.74227 28.4269 5.71529C28.3694 5.68997 28.3113 5.66423 28.2544 5.63891C27.3367 5.22712 26.3358 4.9293 25.3092 4.76538C25.1809 4.74653 25.0527 4.72781 24.9231 4.70895C24.7942 4.69313 24.6632 4.68308 24.535 4.66959L24.3407 4.65019L24.1457 4.64083L23.9507 4.63023C23.886 4.62734 23.8218 4.62142 23.7564 4.62266C23.6267 4.62211 23.4972 4.62087 23.367 4.62032C23.3353 4.62032 23.3009 4.61853 23.2711 4.62032L23.1846 4.62445L23.0114 4.63271L22.8395 4.64028C22.8243 4.64083 22.8137 4.64083 22.7939 4.64207L22.6174 4.65377L22.3814 4.66849L22.2049 4.68019L22.1751 4.68198L22.1644 4.68253C22.1644 4.68308 22.1029 4.68253 22.2062 4.68432L21.8247 4.73428C21.7618 4.74309 21.6984 4.74832 21.6356 4.7607L21.4486 4.79415L21.2614 4.82704L21.1682 4.84355C21.1371 4.84878 21.1067 4.85704 21.0763 4.86351C20.9541 4.89117 20.8318 4.91815 20.7101 4.94636C20.6486 4.95806 20.5892 4.97692 20.5296 4.99274L20.3512 5.0427L20.1727 5.09032L19.9983 5.1473C19.8819 5.18611 19.7655 5.22011 19.6526 5.26126C19.5402 5.30351 19.4272 5.3459 19.3154 5.3887C18.4263 5.73993 17.6269 6.1941 16.9467 6.71268L16.8184 6.80778L16.6968 6.90935C16.6161 6.97638 16.5328 7.04038 16.4561 7.10905C16.4528 7.11139 16.4502 7.11497 16.4468 7.11731C18.4003 4.96797 21.5649 3.57159 25.1362 3.57159C28.7953 3.57159 32.0275 5.0372 33.9672 7.27586C34.1312 7.55483 34.2772 7.8327 34.4062 8.107C34.8049 8.9446 35.0607 9.74174 35.2219 10.4519C35.2398 10.5412 35.2589 10.6288 35.2768 10.7151C35.2939 10.8008 35.3144 10.8847 35.3258 10.9688C35.3508 11.1362 35.376 11.2967 35.3992 11.4511C35.4191 11.6062 35.4296 11.7554 35.4442 11.897C35.4501 11.9675 35.458 12.0363 35.4626 12.1044C35.4653 12.1714 35.4812 12.2372 35.4844 12.3018C35.488 12.43 35.5111 12.5528 35.5111 12.6661Z" fill="url(#paint5_linear_2539_4766)"/>
</g>
<path d="M3.17676 37.3575V38.6117C3.17676 39.0171 5.88981 39.3456 9.23644 39.3456C12.5831 39.3456 15.2961 39.0171 15.2961 38.6117V37.3575H3.17676Z" fill="url(#paint6_linear_2539_4766)"/>
<path d="M15.2961 37.3575C15.2961 37.7628 12.5831 38.0914 9.23644 38.0914C5.88981 38.0914 3.17676 37.7628 3.17676 37.3575C3.17676 36.9522 5.88981 36.6237 9.23644 36.6237C12.5831 36.6237 15.2961 36.9522 15.2961 37.3575Z" fill="url(#paint7_linear_2539_4766)"/>
<path d="M9.23656 38.142C6.27264 38.142 3.17334 37.8778 3.17334 37.3683C3.17334 37.3403 3.18411 37.2911 3.21404 37.2911C3.24398 37.2911 3.23115 37.3296 3.23115 37.3575C3.23115 37.6807 5.69747 38.0407 9.23656 38.0407C12.7756 38.0407 15.242 37.6807 15.242 37.3575C15.242 37.3296 15.2471 37.3033 15.2771 37.3033C15.307 37.3033 15.2998 37.3406 15.2998 37.3687C15.2998 37.8782 12.2005 38.142 9.23656 38.142Z" fill="url(#paint8_linear_2539_4766)"/>
<path d="M8.66411 37.3984C8.72354 37.36 8.78681 37.3222 8.8545 37.2847C8.92161 37.2474 9.00892 37.2136 9.11481 37.1834C9.22129 37.1533 9.35446 37.1288 9.51418 37.1097C9.67405 37.0907 9.87389 37.0806 10.1125 37.0795C10.3467 37.0784 10.5663 37.0855 10.772 37.1003C10.9772 37.1152 11.1581 37.1376 11.3145 37.1673C11.4701 37.1971 11.5972 37.2338 11.6953 37.2776C11.7926 37.3215 11.8506 37.3716 11.8693 37.4281L12.5515 37.4346C12.6011 37.4349 12.6449 37.4386 12.6824 37.4459C12.7204 37.4532 12.739 37.4623 12.739 37.4734L12.7393 37.5259L11.8621 37.518C11.8312 37.5823 11.7529 37.6409 11.6268 37.6942C11.5015 37.7476 11.3412 37.7937 11.1459 37.8326L10.8265 37.7912C10.7979 37.7871 10.7744 37.782 10.756 37.7757C10.7375 37.7695 10.7287 37.7626 10.7285 37.7552C10.7285 37.7451 10.7532 37.7335 10.8026 37.7206C10.852 37.7077 10.9077 37.6916 10.9698 37.6726C11.0319 37.6536 11.0928 37.631 11.1528 37.605C11.2124 37.5791 11.2522 37.548 11.2729 37.512L9.20241 37.4928C9.14799 37.5301 9.08664 37.5669 9.01953 37.6029C8.95184 37.639 8.86247 37.6715 8.75097 37.7002C8.63948 37.7291 8.50055 37.7524 8.33434 37.7704C8.16754 37.7883 7.95871 37.798 7.70622 37.7991C7.51641 37.7999 7.33177 37.7931 7.15081 37.779C6.96985 37.7646 6.8091 37.7433 6.66869 37.7148C6.52829 37.6863 6.41326 37.6511 6.32285 37.6091C6.23318 37.5672 6.18275 37.519 6.17228 37.4645L5.61052 37.4591C5.56097 37.4588 5.51717 37.4553 5.47779 37.4482C5.439 37.4412 5.41924 37.432 5.41924 37.4203L5.41895 37.3679L6.18688 37.3747C6.2208 37.3196 6.29041 37.2714 6.39689 37.2304C6.50322 37.1894 6.63315 37.1529 6.78668 37.121L7.04389 37.154C7.12205 37.1642 7.16084 37.1761 7.16084 37.1899C7.16084 37.1973 7.14506 37.2066 7.11276 37.2176C7.07987 37.2286 7.04182 37.2418 6.99743 37.2571C6.95377 37.2724 6.91071 37.2904 6.86956 37.3109C6.82783 37.3314 6.79686 37.3548 6.77606 37.3808L8.66411 37.3984ZM6.76942 37.4698C6.78491 37.5043 6.81927 37.5338 6.87148 37.5588C6.92369 37.5838 6.98843 37.6042 7.0666 37.6203C7.14476 37.6364 7.23237 37.6481 7.32955 37.6556C7.42733 37.6632 7.52954 37.6667 7.63617 37.6662C7.76049 37.6657 7.86904 37.6606 7.96166 37.6512C8.05368 37.6417 8.1348 37.6289 8.20515 37.6127C8.27491 37.5965 8.3364 37.5778 8.38832 37.5563C8.44023 37.5348 8.48639 37.5116 8.52828 37.4865L6.76942 37.4698ZM11.2766 37.4231C11.2612 37.3882 11.2235 37.3577 11.1651 37.3314C11.1065 37.3052 11.0315 37.2831 10.9406 37.2653C10.8498 37.2474 10.7437 37.2342 10.6224 37.2254C10.5017 37.2168 10.3684 37.2126 10.2224 37.2133C10.0929 37.2139 9.98066 37.2194 9.88731 37.2296C9.7941 37.2399 9.71284 37.2535 9.64382 37.2708C9.57539 37.288 9.5164 37.3081 9.46891 37.3311C9.42083 37.3541 9.37585 37.3787 9.3347 37.4049L11.2766 37.4231Z" fill="#FCB048"/>
<path d="M9.2376 36.7031C6.53576 36.7031 3.72242 36.925 3.27246 37.3545C3.29001 37.3696 3.30638 37.3857 3.32157 37.4028C3.70089 37.1046 6.02386 36.8044 9.2376 36.8044C12.5338 36.8044 14.8941 37.1203 15.1799 37.4258C15.1939 37.409 15.2089 37.393 15.2252 37.3779C14.8535 36.9332 11.9874 36.7031 9.2376 36.7031Z" fill="url(#paint9_linear_2539_4766)"/>
<path d="M1.49219 36.04V37.2942C1.49219 37.6995 4.20524 38.0281 7.55187 38.0281C10.8985 38.0281 13.6115 37.6995 13.6115 37.2942V36.04H1.49219Z" fill="url(#paint10_linear_2539_4766)"/>
<path d="M13.6115 36.04C13.6115 36.4453 10.8985 36.7739 7.55187 36.7739C4.20524 36.7739 1.49219 36.4453 1.49219 36.04C1.49219 35.6347 4.20524 35.3062 7.55187 35.3062C10.8985 35.3062 13.6115 35.6347 13.6115 36.04Z" fill="url(#paint11_linear_2539_4766)"/>
<path d="M7.55199 36.8245C4.58807 36.8245 1.48877 36.5603 1.48877 36.0508C1.48877 36.0228 1.49954 35.9736 1.52947 35.9736C1.55941 35.9736 1.54658 36.012 1.54658 36.04C1.54658 36.3632 4.0129 36.7232 7.55199 36.7232C11.0911 36.7232 13.5574 36.3632 13.5574 36.04C13.5574 36.0121 13.5626 35.9858 13.5925 35.9858C13.6224 35.9858 13.6152 36.0231 13.6152 36.0512C13.6152 36.5608 10.5159 36.8245 7.55199 36.8245Z" fill="url(#paint12_linear_2539_4766)"/>
<path d="M6.97924 36.0811C7.03868 36.0427 7.10194 36.0048 7.16964 35.9674C7.23674 35.9301 7.32405 35.8962 7.42994 35.8661C7.53642 35.8359 7.6696 35.8114 7.82947 35.7923C7.98934 35.7733 8.18917 35.7633 8.42779 35.7622C8.66199 35.7611 8.88159 35.7681 9.08733 35.7829C9.29247 35.7978 9.47343 35.8202 9.62976 35.85C9.78535 35.8797 9.91248 35.9164 10.0106 35.9602C10.1079 36.0041 10.1659 36.0542 10.1846 36.1108L10.8668 36.1172C10.9164 36.1175 10.9602 36.1212 10.9976 36.1285C11.0358 36.1358 11.0543 36.1449 11.0543 36.1561L11.0546 36.2085L10.1774 36.2007C10.1465 36.2649 10.0682 36.3236 9.94212 36.3768C9.81677 36.4301 9.65645 36.4762 9.46119 36.5153L9.14175 36.4738C9.11314 36.4697 9.08969 36.4646 9.07125 36.4583C9.05282 36.4521 9.04382 36.4452 9.04382 36.4378C9.04382 36.4277 9.06845 36.4162 9.11786 36.4034C9.16726 36.3904 9.22301 36.3743 9.2851 36.3553C9.34719 36.3364 9.40795 36.3138 9.46812 36.2878C9.5277 36.2618 9.56752 36.2308 9.58817 36.1947L7.51784 36.1756C7.46342 36.2129 7.40207 36.2496 7.33496 36.2857C7.26727 36.3218 7.1779 36.3542 7.0664 36.383C6.95491 36.4118 6.81598 36.4352 6.64977 36.4532C6.48297 36.4711 6.27414 36.4807 6.02165 36.4818C5.83184 36.4827 5.6472 36.476 5.46624 36.4617C5.28528 36.4474 5.12467 36.4261 4.98412 36.3976C4.84372 36.3691 4.72869 36.3339 4.63828 36.2919C4.54861 36.2499 4.49818 36.2018 4.48771 36.1473L3.92595 36.1419C3.8764 36.1416 3.8326 36.138 3.79322 36.131C3.75443 36.124 3.73482 36.1148 3.73467 36.1031L3.73438 36.0506L4.50231 36.0575C4.53623 36.0023 4.60584 35.9542 4.71232 35.9131C4.81865 35.8721 4.94858 35.8357 5.10211 35.8037L5.35932 35.8366C5.43748 35.8468 5.47627 35.8588 5.47627 35.8725C5.47627 35.88 5.46049 35.8892 5.42819 35.9002C5.3953 35.9112 5.35725 35.9244 5.31286 35.9397C5.2692 35.955 5.22614 35.973 5.18499 35.9935C5.14326 36.014 5.11229 36.0373 5.09149 36.0634L6.97924 36.0811ZM5.08456 36.1525C5.10004 36.1869 5.13441 36.2165 5.18662 36.2414C5.23882 36.2663 5.30357 36.2868 5.38173 36.3029C5.4599 36.319 5.5475 36.3307 5.64469 36.3383C5.74247 36.3457 5.84467 36.3493 5.9513 36.3489C6.07563 36.3483 6.18417 36.3432 6.27679 36.3339C6.36882 36.3244 6.44993 36.3116 6.52028 36.2955C6.59004 36.2792 6.65139 36.2605 6.70345 36.2391C6.75537 36.2176 6.80153 36.1943 6.84341 36.1693L5.08456 36.1525ZM9.59171 36.1055C9.57623 36.0707 9.53862 36.0402 9.48022 36.0139C9.42167 35.9877 9.34675 35.9656 9.25575 35.9478C9.1649 35.9299 9.05886 35.9167 8.93763 35.9081C8.817 35.8994 8.68367 35.8953 8.53767 35.8959C8.40818 35.8965 8.29595 35.902 8.20259 35.9122C8.10938 35.9225 8.02812 35.9361 7.9591 35.9535C7.89067 35.9707 7.83168 35.9908 7.78419 36.0138C7.73611 36.0367 7.69113 36.0612 7.64998 36.0875L9.59171 36.1055Z" fill="#FCB048"/>
<path d="M7.55255 35.3856C4.8507 35.3856 2.03737 35.6075 1.5874 36.037C1.60495 36.0521 1.62132 36.0684 1.63651 36.0853C2.01583 35.7871 4.3388 35.4869 7.55255 35.4869C10.8487 35.4869 13.209 35.8028 13.4948 36.1083C13.5088 36.0915 13.5239 36.0755 13.5401 36.0604C13.1686 35.6157 10.3025 35.3856 7.55255 35.3856Z" fill="url(#paint13_linear_2539_4766)"/>
<path d="M2.94629 34.7265V35.9807C2.94629 36.386 5.65934 36.7146 9.00597 36.7146C12.3526 36.7146 15.0656 36.386 15.0656 35.9807V34.7265H2.94629Z" fill="url(#paint14_linear_2539_4766)"/>
<path d="M15.0652 34.7265C15.0652 35.1318 12.3521 35.4603 9.00548 35.4603C5.65885 35.4603 2.9458 35.1318 2.9458 34.7265C2.9458 34.3212 5.65885 33.9927 9.00548 33.9927C12.3521 33.9927 15.0652 34.3212 15.0652 34.7265Z" fill="url(#paint15_linear_2539_4766)"/>
<path d="M9.0056 35.5109C6.04169 35.5109 2.94238 35.2467 2.94238 34.7371C2.94238 34.7092 2.95315 34.6599 2.98309 34.6599C3.01303 34.6599 3.0002 34.6983 3.0002 34.7264C3.0002 35.0495 5.46651 35.4096 9.0056 35.4096C12.5447 35.4096 15.011 35.0495 15.011 34.7264C15.011 34.6984 15.0162 34.6721 15.0461 34.6721C15.076 34.6721 15.0688 34.7094 15.0688 34.7375C15.069 35.2472 11.9695 35.5109 9.0056 35.5109Z" fill="url(#paint16_linear_2539_4766)"/>
<path d="M8.433 34.7674C8.49244 34.729 8.55571 34.6911 8.6234 34.6537C8.6905 34.6164 8.77781 34.5826 8.8837 34.5524C8.99018 34.5223 9.12336 34.4978 9.28323 34.4786C9.4431 34.4597 9.64293 34.4496 9.88156 34.4485C10.1158 34.4474 10.3354 34.4544 10.5411 34.4693C10.7462 34.4842 10.9272 34.5066 11.0835 34.5363C11.2391 34.566 11.3662 34.6028 11.4643 34.6466C11.5617 34.6905 11.6196 34.7406 11.6383 34.7971L12.3206 34.8036C12.3701 34.8039 12.4139 34.8076 12.4514 34.8149C12.4896 34.8222 12.508 34.8312 12.508 34.8424L12.5083 34.8948L11.6311 34.887C11.6003 34.9513 11.522 35.0099 11.3959 35.0632C11.2705 35.1164 11.1102 35.1625 10.915 35.2016L10.5955 35.1602C10.5669 35.1561 10.5434 35.151 10.525 35.1446C10.5066 35.1384 10.4976 35.1316 10.4976 35.1241C10.4976 35.1141 10.5222 35.1025 10.5716 35.0897C10.621 35.0768 10.6768 35.0607 10.7389 35.0417C10.8009 35.0227 10.8617 35.0001 10.9219 34.9741C10.9815 34.9481 11.0213 34.9171 11.0419 34.8811L8.97145 34.8619C8.91703 34.8992 8.85568 34.936 8.78858 34.972C8.72088 35.0081 8.63151 35.0406 8.52002 35.0693C8.40852 35.0981 8.26959 35.1215 8.10338 35.1395C7.93658 35.1576 7.72775 35.1671 7.47526 35.1682C7.28546 35.169 7.10081 35.1624 6.91985 35.1481C6.73889 35.1338 6.57814 35.1124 6.43774 35.0839C6.29734 35.0554 6.1823 35.0202 6.0919 34.9782C6.00223 34.9363 5.95179 34.8881 5.94132 34.8336L5.37957 34.8282C5.33001 34.8279 5.28621 34.8244 5.24683 34.8174C5.20805 34.8103 5.18828 34.8011 5.18828 34.7894L5.18799 34.737L5.95592 34.7439C5.98984 34.6887 6.05945 34.6405 6.16593 34.5995C6.27226 34.5585 6.4022 34.522 6.55572 34.4901L6.81293 34.523C6.89109 34.5331 6.92988 34.5451 6.92988 34.5589C6.92988 34.5663 6.9141 34.5755 6.8818 34.5865C6.84891 34.5976 6.81086 34.6108 6.76647 34.626C6.72282 34.6413 6.67975 34.6594 6.63861 34.6799C6.59687 34.7004 6.5659 34.7238 6.5451 34.7498L8.433 34.7674ZM6.53817 34.8388C6.55366 34.8732 6.58802 34.9028 6.64023 34.9277C6.69244 34.9526 6.75718 34.9731 6.83535 34.9892C6.91351 35.0054 7.00111 35.0171 7.0983 35.0246C7.19608 35.0321 7.29829 35.0356 7.40491 35.0352C7.52924 35.0347 7.63779 35.0296 7.7304 35.0202C7.82243 35.0107 7.90355 34.9979 7.97389 34.9818C8.04365 34.9656 8.10515 34.9469 8.15707 34.9254C8.20898 34.9039 8.25514 34.8807 8.29702 34.8556L6.53817 34.8388ZM11.0455 34.7919C11.0301 34.7571 10.9925 34.7265 10.934 34.7002C10.8754 34.6741 10.8004 34.6519 10.7095 34.6342C10.6187 34.6163 10.5126 34.6031 10.3914 34.5943C10.2708 34.5856 10.1374 34.5815 9.99143 34.5821C9.86194 34.5827 9.74956 34.5882 9.65635 34.5984C9.56314 34.6087 9.48188 34.6223 9.41286 34.6397C9.34443 34.6569 9.28544 34.677 9.23795 34.7001C9.18987 34.7231 9.14489 34.7476 9.10374 34.7739L11.0455 34.7919Z" fill="#FCB048"/>
<path d="M9.00665 34.0721C6.3048 34.0721 3.49147 34.2939 3.0415 34.7235C3.05905 34.7386 3.07542 34.7549 3.09061 34.7718C3.46993 34.4735 5.7929 34.1734 9.00665 34.1734C12.3028 34.1734 14.6631 34.4892 14.9489 34.7948C14.9629 34.778 14.978 34.762 14.9942 34.7469C14.6227 34.3021 11.7566 34.0721 9.00665 34.0721Z" fill="url(#paint17_linear_2539_4766)"/>
<path d="M3.82764 33.409V34.6632C3.82764 35.0685 6.54069 35.397 9.88732 35.397C13.2339 35.397 15.947 35.0685 15.947 34.6632V33.409H3.82764Z" fill="url(#paint18_linear_2539_4766)"/>
<path d="M9.88732 34.1428C13.234 34.1428 15.947 33.8143 15.947 33.409C15.947 33.0037 13.234 32.6752 9.88732 32.6752C6.54065 32.6752 3.82764 33.0037 3.82764 33.409C3.82764 33.8143 6.54065 34.1428 9.88732 34.1428Z" fill="url(#paint19_linear_2539_4766)"/>
<path d="M9.88744 34.1935C6.92352 34.1935 3.82422 33.9292 3.82422 33.4197C3.82422 33.3918 3.83498 33.3425 3.86492 33.3425C3.89486 33.3425 3.88203 33.3811 3.88203 33.409C3.88203 33.7321 6.34835 34.0922 9.88744 34.0922C13.4265 34.0922 15.8928 33.7321 15.8928 33.409C15.8928 33.3811 15.898 33.3548 15.9279 33.3548C15.9579 33.3548 15.9507 33.3921 15.9507 33.4201C15.9508 33.9296 12.8514 34.1935 9.88744 34.1935Z" fill="url(#paint20_linear_2539_4766)"/>
<path d="M9.31469 33.4499C9.37412 33.4115 9.43739 33.3736 9.50509 33.3362C9.57219 33.2989 9.65965 33.265 9.76539 33.2349C9.87187 33.2048 10.005 33.1803 10.1649 33.1611C10.3248 33.1421 10.5246 33.1321 10.7632 33.131C10.9974 33.1299 11.217 33.1369 11.4228 33.1518C11.6279 33.1666 11.8089 33.1891 11.9652 33.2188C12.1208 33.2485 12.2479 33.2853 12.346 33.329C12.4433 33.3729 12.5013 33.423 12.52 33.4796L13.2023 33.4861C13.2518 33.4863 13.2956 33.4901 13.3331 33.4974C13.3711 33.5046 13.3897 33.5137 13.3897 33.5249L13.39 33.5773L12.5128 33.5695C12.482 33.6337 12.4037 33.6924 12.2776 33.7456C12.1522 33.7989 11.9919 33.845 11.7966 33.8841L11.4772 33.8427C11.4486 33.8385 11.4251 33.8334 11.4067 33.8271C11.3883 33.8209 11.3794 33.814 11.3793 33.8066C11.3793 33.7966 11.4039 33.785 11.4533 33.7722C11.5027 33.7593 11.5585 33.7432 11.6205 33.7242C11.6826 33.7052 11.7434 33.6826 11.8036 33.6566C11.8632 33.6307 11.903 33.5996 11.9236 33.5636L9.85329 33.5444C9.79887 33.5817 9.73752 33.6185 9.67041 33.6545C9.60272 33.6906 9.51335 33.7231 9.40185 33.7518C9.29036 33.7806 9.15143 33.804 8.98522 33.822C8.81842 33.8399 8.60959 33.8495 8.3571 33.8506C8.16729 33.8515 7.98265 33.8447 7.80169 33.8306C7.62073 33.8162 7.46012 33.7949 7.31957 33.7664C7.17917 33.7379 7.06414 33.7027 6.97373 33.6607C6.88406 33.6187 6.83363 33.5706 6.82315 33.5161L6.2614 33.5107C6.21185 33.5104 6.16805 33.5069 6.12867 33.4998C6.08988 33.4928 6.07027 33.4836 6.07012 33.4719L6.06982 33.4195L6.83776 33.4263C6.87168 33.3711 6.94129 33.323 7.04777 33.282C7.15425 33.241 7.28403 33.2045 7.43756 33.1726L7.69476 33.2054C7.77293 33.2156 7.81172 33.2277 7.81172 33.2414C7.81172 33.2488 7.79594 33.258 7.76364 33.269C7.73075 33.28 7.6927 33.2932 7.64831 33.3085C7.60465 33.3238 7.56159 33.3418 7.52044 33.3623C7.47871 33.3828 7.44773 33.4062 7.42694 33.4323L9.31469 33.4499ZM7.41986 33.5213C7.43535 33.5557 7.46971 33.5853 7.52192 33.6102C7.57413 33.6351 7.63887 33.6556 7.71703 33.6717C7.7952 33.6878 7.8828 33.6995 7.97999 33.7071C8.07777 33.7147 8.17998 33.7181 8.2866 33.7177C8.41093 33.7171 8.51947 33.7121 8.61209 33.7027C8.70412 33.6932 8.78523 33.6804 8.85558 33.6642C8.92534 33.6479 8.98684 33.6292 9.03875 33.6077C9.09067 33.5863 9.13683 33.563 9.17871 33.538L7.41986 33.5213ZM11.9272 33.4745C11.9117 33.4397 11.8741 33.4091 11.8157 33.3828C11.7571 33.3567 11.6822 33.3345 11.5913 33.3168C11.5005 33.2989 11.3945 33.2857 11.2732 33.277C11.1526 33.2683 11.0193 33.2642 10.8733 33.2649C10.7438 33.2654 10.6315 33.271 10.5382 33.2811C10.445 33.2915 10.3637 33.3051 10.2947 33.3224C10.2263 33.3396 10.1673 33.3597 10.1198 33.3827C10.0717 33.4057 10.0267 33.4303 9.98558 33.4565L11.9272 33.4745Z" fill="#FCB048"/>
<path d="M9.88848 32.7546C7.18664 32.7546 4.3733 32.9764 3.92334 33.406C3.94104 33.4211 3.95726 33.4372 3.9726 33.4543C4.35192 33.156 6.67488 32.8559 9.88863 32.8559C13.1848 32.8559 15.5451 33.1717 15.8309 33.4772C15.8449 33.4605 15.86 33.4445 15.8762 33.4294C15.5044 32.9847 12.6384 32.7546 9.88848 32.7546Z" fill="url(#paint21_linear_2539_4766)"/>
<path d="M3.17676 31.9876V33.2418C3.17676 33.6471 5.88981 33.9756 9.23644 33.9756C12.5831 33.9756 15.2961 33.6471 15.2961 33.2418V31.9876H3.17676Z" fill="url(#paint22_linear_2539_4766)"/>
<path d="M15.2961 31.9876C15.2961 32.3929 12.5831 32.7214 9.23644 32.7214C5.88981 32.7214 3.17676 32.3929 3.17676 31.9876C3.17676 31.5822 5.88981 31.2537 9.23644 31.2537C12.5831 31.2537 15.2961 31.5822 15.2961 31.9876Z" fill="url(#paint23_linear_2539_4766)"/>
<path d="M9.23656 32.772C6.27264 32.772 3.17334 32.5078 3.17334 31.9983C3.17334 31.9704 3.18411 31.9211 3.21404 31.9211C3.24398 31.9211 3.23115 31.9596 3.23115 31.9876C3.23115 32.3107 5.69747 32.6707 9.23656 32.6707C12.7756 32.6707 15.242 32.3107 15.242 31.9876C15.242 31.9596 15.2471 31.9333 15.2771 31.9333C15.307 31.9333 15.2998 31.9706 15.2998 31.9987C15.2998 32.5083 12.2005 32.772 9.23656 32.772Z" fill="url(#paint24_linear_2539_4766)"/>
<path d="M8.66411 32.0284C8.72354 31.99 8.78681 31.9522 8.8545 31.9148C8.92161 31.8775 9.00892 31.8436 9.11481 31.8135C9.22129 31.7833 9.35446 31.7588 9.51418 31.7397C9.67405 31.7207 9.87389 31.7107 10.1125 31.7096C10.3467 31.7085 10.5663 31.7155 10.772 31.7303C10.9772 31.7452 11.1581 31.7676 11.3145 31.7974C11.4701 31.8271 11.5972 31.8638 11.6953 31.9076C11.7926 31.9514 11.8506 32.0016 11.8693 32.0582L12.5515 32.0646C12.6011 32.0649 12.6449 32.0686 12.6824 32.0759C12.7204 32.0832 12.739 32.0923 12.739 32.1034L12.7393 32.1559L11.8621 32.148C11.8312 32.2123 11.7529 32.2709 11.6268 32.3242C11.5015 32.3775 11.3412 32.4237 11.1459 32.4627L10.8265 32.4212C10.7979 32.4171 10.7744 32.412 10.756 32.4057C10.7375 32.3995 10.7287 32.3926 10.7285 32.3852C10.7285 32.3751 10.7532 32.3636 10.8026 32.3508C10.852 32.3378 10.9077 32.3217 10.9698 32.3027C11.0319 32.2837 11.0928 32.2612 11.1528 32.2352C11.2124 32.2091 11.2522 32.1782 11.2729 32.1421L9.20241 32.123C9.14799 32.1603 9.08664 32.197 9.01953 32.2331C8.95184 32.2692 8.86247 32.3016 8.75097 32.3304C8.63948 32.3592 8.50055 32.3826 8.33434 32.4006C8.16754 32.4185 7.95871 32.4281 7.70622 32.4292C7.51641 32.43 7.33177 32.4233 7.15081 32.4091C6.96985 32.3948 6.8091 32.3735 6.66869 32.345C6.52829 32.3165 6.41326 32.2813 6.32285 32.2393C6.23318 32.1973 6.18275 32.1491 6.17228 32.0946L5.61052 32.0893C5.56097 32.089 5.51717 32.0854 5.47779 32.0784C5.439 32.0714 5.41924 32.0622 5.41924 32.0505L5.41895 31.998L6.18688 32.0049C6.2208 31.9497 6.29041 31.9015 6.39689 31.8605C6.50322 31.8195 6.63315 31.783 6.78668 31.7511L7.04389 31.784C7.12205 31.7943 7.16084 31.8063 7.16084 31.8201C7.16084 31.8275 7.14506 31.8367 7.11276 31.8477C7.07987 31.8587 7.04182 31.872 6.99743 31.8872C6.95377 31.9025 6.91071 31.9205 6.86956 31.941C6.82783 31.9616 6.79686 31.9848 6.77606 32.011L8.66411 32.0284ZM6.76942 32.1C6.78491 32.1344 6.81927 32.164 6.87148 32.1889C6.92369 32.2138 6.98843 32.2343 7.0666 32.2504C7.14476 32.2665 7.23237 32.2782 7.32955 32.2858C7.42733 32.2932 7.52954 32.2968 7.63617 32.2964C7.76049 32.2958 7.86904 32.2908 7.96166 32.2814C8.05368 32.2719 8.1348 32.2591 8.20515 32.2429C8.27491 32.2266 8.3364 32.2079 8.38832 32.1864C8.44023 32.165 8.48639 32.1417 8.52828 32.1167L6.76942 32.1ZM11.2766 32.0531C11.2612 32.0183 11.2235 31.9877 11.1651 31.9614C11.1065 31.9353 11.0315 31.9131 10.9406 31.8954C10.8498 31.8775 10.7437 31.8642 10.6224 31.8556C10.5017 31.8469 10.3684 31.8428 10.2224 31.8435C10.0929 31.844 9.98066 31.8495 9.88731 31.8597C9.7941 31.87 9.71284 31.8837 9.64382 31.901C9.57539 31.9182 9.5164 31.9384 9.46891 31.9614C9.42083 31.9844 9.37585 32.009 9.3347 32.0352L11.2766 32.0531Z" fill="#FCB048"/>
<path d="M9.2376 31.3331C6.53576 31.3331 3.72242 31.555 3.27246 31.9845C3.29001 31.9997 3.30638 32.0159 3.32157 32.0328C3.70089 31.7346 6.02386 31.4344 9.2376 31.4344C12.5338 31.4344 14.8941 31.7503 15.1799 32.0558C15.1939 32.039 15.2089 32.0231 15.2252 32.0079C14.8535 31.5632 11.9874 31.3331 9.2376 31.3331Z" fill="url(#paint25_linear_2539_4766)"/>
<path d="M1.49219 30.6702V31.9245C1.49219 32.3299 4.20524 32.6584 7.55187 32.6584C10.8985 32.6584 13.6115 32.3299 13.6115 31.9245V30.6702H1.49219Z" fill="url(#paint26_linear_2539_4766)"/>
<path d="M7.55187 31.404C10.8985 31.404 13.6115 31.0755 13.6115 30.6702C13.6115 30.2649 10.8985 29.9364 7.55187 29.9364C4.2052 29.9364 1.49219 30.2649 1.49219 30.6702C1.49219 31.0755 4.2052 31.404 7.55187 31.404Z" fill="url(#paint27_linear_2539_4766)"/>
<path d="M7.55199 31.4545C4.58807 31.4545 1.48877 31.1903 1.48877 30.6808C1.48877 30.6528 1.49954 30.6036 1.52947 30.6036C1.55941 30.6036 1.54658 30.642 1.54658 30.6701C1.54658 30.9932 4.0129 31.3532 7.55199 31.3532C11.0911 31.3532 13.5574 30.9932 13.5574 30.6701C13.5574 30.6421 13.5626 30.6158 13.5925 30.6158C13.6224 30.6158 13.6152 30.6531 13.6152 30.6812C13.6152 31.1908 10.5159 31.4545 7.55199 31.4545Z" fill="url(#paint28_linear_2539_4766)"/>
<path d="M6.97924 30.7111C7.03868 30.6727 7.10194 30.6348 7.16964 30.5974C7.23674 30.5601 7.32405 30.5262 7.42994 30.4961C7.53642 30.466 7.6696 30.4415 7.82947 30.4223C7.98934 30.4033 8.18917 30.3933 8.42779 30.3922C8.66199 30.3911 8.88159 30.3981 9.08733 30.413C9.29247 30.4278 9.47343 30.4503 9.62976 30.48C9.78535 30.5097 9.91248 30.5465 10.0106 30.5902C10.1079 30.634 10.1659 30.6842 10.1846 30.7408L10.8668 30.7473C10.9164 30.7475 10.9602 30.7513 10.9976 30.7586C11.0358 30.7658 11.0543 30.7749 11.0543 30.7861L11.0546 30.8385L10.1774 30.8307C10.1465 30.8949 10.0682 30.9536 9.94212 31.0068C9.81677 31.0601 9.65645 31.1063 9.46119 31.1453L9.14175 31.1039C9.11314 31.0997 9.08969 31.0946 9.07125 31.0883C9.05282 31.0821 9.04382 31.0752 9.04382 31.0678C9.04382 31.0578 9.06845 31.0462 9.11786 31.0333C9.16726 31.0203 9.22301 31.0042 9.2851 30.9852C9.34719 30.9662 9.40795 30.9437 9.46812 30.9177C9.5277 30.8916 9.56752 30.8607 9.58817 30.8246L7.51784 30.8055C7.46342 30.8428 7.40207 30.8795 7.33496 30.9156C7.26727 30.9516 7.1779 30.9841 7.0664 31.0129C6.95491 31.0417 6.81598 31.0651 6.64977 31.0831C6.48297 31.1011 6.27414 31.1106 6.02165 31.1117C5.83184 31.1125 5.6472 31.1059 5.46624 31.0916C5.28528 31.0773 5.12467 31.056 4.98412 31.0275C4.84372 30.999 4.72869 30.9638 4.63828 30.9218C4.54861 30.8798 4.49818 30.8316 4.48771 30.7771L3.92595 30.7718C3.8764 30.7715 3.8326 30.7679 3.79322 30.7609C3.75443 30.7539 3.73482 30.7447 3.73467 30.733L3.73438 30.6805L4.50231 30.6874C4.53623 30.6322 4.60584 30.584 4.71232 30.543C4.81865 30.502 4.94858 30.4655 5.10211 30.4336L5.35932 30.4665C5.43748 30.4767 5.47627 30.4887 5.47627 30.5024C5.47627 30.5099 5.46049 30.5191 5.42819 30.5301C5.3953 30.5411 5.35725 30.5543 5.31286 30.5696C5.2692 30.5849 5.22614 30.6028 5.18499 30.6234C5.14326 30.6439 5.11229 30.6673 5.09149 30.6933L6.97924 30.7111ZM5.08456 30.7825C5.10004 30.8169 5.13441 30.8465 5.18662 30.8714C5.23882 30.8963 5.30357 30.9168 5.38173 30.9329C5.4599 30.949 5.5475 30.9607 5.64469 30.9683C5.74247 30.9759 5.84467 30.9793 5.9513 30.9789C6.07563 30.9783 6.18417 30.9733 6.27679 30.9639C6.36882 30.9544 6.44993 30.9416 6.52028 30.9254C6.59004 30.9091 6.65139 30.8904 6.70345 30.8689C6.75537 30.8475 6.80153 30.8242 6.84341 30.7992L5.08456 30.7825ZM9.59171 30.7356C9.57623 30.7007 9.53862 30.6702 9.48022 30.6439C9.42167 30.6178 9.34675 30.5956 9.25575 30.5778C9.1649 30.56 9.05886 30.5467 8.93763 30.5379C8.817 30.5293 8.68367 30.5251 8.53767 30.5258C8.40818 30.5264 8.29595 30.5319 8.20259 30.5421C8.10938 30.5522 8.02812 30.566 7.9591 30.5834C7.89067 30.6006 7.83168 30.6208 7.78419 30.6438C7.73611 30.6668 7.69113 30.6913 7.64998 30.7175L9.59171 30.7356Z" fill="#FCB048"/>
<path d="M7.55255 30.0158C4.8507 30.0158 2.03737 30.2376 1.5874 30.6672C1.60495 30.6823 1.62132 30.6985 1.63651 30.7155C2.01583 30.4172 4.3388 30.1171 7.55255 30.1171C10.8487 30.1171 13.209 30.4329 13.4948 30.7384C13.5088 30.7217 13.5239 30.7057 13.5401 30.6906C13.1686 30.2459 10.3025 30.0158 7.55255 30.0158Z" fill="url(#paint29_linear_2539_4766)"/>
<path d="M2.94629 29.3565V30.6107C2.94629 31.0161 5.65934 31.3446 9.00597 31.3446C12.3526 31.3446 15.0656 31.0161 15.0656 30.6107V29.3565H2.94629Z" fill="url(#paint30_linear_2539_4766)"/>
<path d="M9.00548 30.0904C12.3521 30.0904 15.0652 29.7618 15.0652 29.3565C15.0652 28.9512 12.3521 28.6227 9.00548 28.6227C5.65881 28.6227 2.9458 28.9512 2.9458 29.3565C2.9458 29.7618 5.65881 30.0904 9.00548 30.0904Z" fill="url(#paint31_linear_2539_4766)"/>
<path d="M9.0056 30.141C6.04169 30.141 2.94238 29.8768 2.94238 29.3673C2.94238 29.3393 2.95315 29.2901 2.98309 29.2901C3.01303 29.2901 3.0002 29.3286 3.0002 29.3565C3.0002 29.6797 5.46651 30.0397 9.0056 30.0397C12.5447 30.0397 15.011 29.6797 15.011 29.3565C15.011 29.3286 15.0162 29.3023 15.0461 29.3023C15.076 29.3023 15.0688 29.3396 15.0688 29.3677C15.069 29.8772 11.9695 30.141 9.0056 30.141Z" fill="url(#paint32_linear_2539_4766)"/>
<path d="M8.433 29.3974C8.49244 29.359 8.55571 29.3212 8.6234 29.2837C8.6905 29.2464 8.77781 29.2126 8.8837 29.1824C8.99018 29.1523 9.12336 29.1278 9.28323 29.1087C9.4431 29.0897 9.64293 29.0796 9.88156 29.0785C10.1158 29.0774 10.3354 29.0844 10.5411 29.0993C10.7462 29.1142 10.9272 29.1366 11.0835 29.1663C11.2391 29.1961 11.3662 29.2328 11.4643 29.2766C11.5617 29.3203 11.6196 29.3706 11.6383 29.4271L12.3206 29.4336C12.3701 29.4339 12.4139 29.4376 12.4514 29.4449C12.4896 29.4522 12.508 29.4613 12.508 29.4724L12.5083 29.5249L11.6311 29.517C11.6003 29.5813 11.522 29.6399 11.3959 29.6932C11.2705 29.7464 11.1102 29.7927 10.915 29.8316L10.5955 29.7902C10.5669 29.7861 10.5434 29.781 10.525 29.7746C10.5066 29.7685 10.4976 29.7616 10.4976 29.7541C10.4976 29.7441 10.5222 29.7325 10.5716 29.7196C10.621 29.7067 10.6768 29.6906 10.7389 29.6716C10.8009 29.6526 10.8617 29.63 10.9219 29.604C10.9815 29.578 11.0213 29.547 11.0419 29.511L8.97145 29.4918C8.91703 29.5291 8.85568 29.5659 8.78858 29.6019C8.72088 29.638 8.63151 29.6705 8.52002 29.6992C8.40852 29.728 8.26959 29.7514 8.10338 29.7694C7.93658 29.7874 7.72775 29.7969 7.47526 29.798C7.28546 29.7989 7.10081 29.7921 6.91985 29.778C6.73889 29.7636 6.57814 29.7423 6.43774 29.7138C6.29734 29.6853 6.1823 29.6501 6.0919 29.6081C6.00223 29.5661 5.95179 29.518 5.94132 29.4635L5.37957 29.4581C5.33001 29.4578 5.28621 29.4543 5.24683 29.4472C5.20805 29.4402 5.18828 29.431 5.18828 29.4193L5.18799 29.3669L5.95592 29.3737C5.98984 29.3186 6.05945 29.2704 6.16593 29.2294C6.27226 29.1884 6.4022 29.1519 6.55572 29.12L6.81293 29.1528C6.89109 29.163 6.92988 29.175 6.92988 29.1889C6.92988 29.1963 6.9141 29.2056 6.8818 29.2166C6.84891 29.2276 6.81086 29.2408 6.76647 29.2561C6.72282 29.2713 6.67975 29.2894 6.63861 29.3099C6.59687 29.3304 6.5659 29.3538 6.5451 29.3798L8.433 29.3974ZM6.53817 29.4688C6.55366 29.5032 6.58802 29.5328 6.64023 29.5577C6.69244 29.5828 6.75718 29.6032 6.83535 29.6193C6.91351 29.6354 7.00111 29.6471 7.0983 29.6546C7.19608 29.6622 7.29829 29.6656 7.40491 29.6652C7.52924 29.6647 7.63779 29.6596 7.7304 29.6502C7.82243 29.6407 7.90355 29.6279 7.97389 29.6117C8.04365 29.5955 8.10515 29.5767 8.15707 29.5553C8.20898 29.5338 8.25514 29.5105 8.29702 29.4855L6.53817 29.4688ZM11.0455 29.422C11.0301 29.3872 10.9925 29.3567 10.934 29.3304C10.8754 29.3042 10.8004 29.2821 10.7095 29.2643C10.6187 29.2464 10.5126 29.2332 10.3914 29.2244C10.2708 29.2157 10.1374 29.2116 9.99143 29.2123C9.86194 29.2129 9.74956 29.2184 9.65635 29.2285C9.56314 29.2389 9.48188 29.2525 9.41286 29.2698C9.34443 29.287 9.28544 29.3073 9.23795 29.3301C9.18987 29.3531 9.14489 29.3777 9.10374 29.4039L11.0455 29.422Z" fill="#FCB048"/>
<path d="M9.00665 28.7021C6.3048 28.7021 3.49147 28.924 3.0415 29.3535C3.05905 29.3686 3.07542 29.3849 3.09061 29.4018C3.46993 29.1036 5.7929 28.8034 9.00665 28.8034C12.3028 28.8034 14.6631 29.1193 14.9489 29.4248C14.9629 29.408 14.978 29.392 14.9942 29.3769C14.6227 28.9322 11.7566 28.7021 9.00665 28.7021Z" fill="url(#paint33_linear_2539_4766)"/>
<path d="M2.18945 28.0392V29.2934C2.18945 29.6987 4.9025 30.0272 8.24913 30.0272C11.5958 30.0272 14.3088 29.6987 14.3088 29.2934V28.0392H2.18945Z" fill="url(#paint34_linear_2539_4766)"/>
<path d="M8.24913 28.773C11.5958 28.773 14.3088 28.4444 14.3088 28.0391C14.3088 27.6339 11.5958 27.3053 8.24913 27.3053C4.90246 27.3053 2.18945 27.6339 2.18945 28.0391C2.18945 28.4444 4.90246 28.773 8.24913 28.773Z" fill="url(#paint35_linear_2539_4766)"/>
<path d="M8.24925 28.8235C5.28534 28.8235 2.18604 28.5592 2.18604 28.0497C2.18604 28.0218 2.1968 27.9725 2.22674 27.9725C2.25668 27.9725 2.24385 28.0109 2.24385 28.039C2.24385 28.3622 4.71016 28.7222 8.24925 28.7222C11.7883 28.7222 14.2547 28.3622 14.2547 28.039C14.2547 28.0111 14.2598 27.9848 14.2898 27.9848C14.3197 27.9848 14.3125 28.0221 14.3125 28.0502C14.3125 28.5598 11.2132 28.8235 8.24925 28.8235Z" fill="url(#paint36_linear_2539_4766)"/>
<path d="M7.67651 28.08C7.73594 28.0416 7.79921 28.0038 7.8669 27.9663C7.93401 27.9291 8.02146 27.8952 8.12721 27.8651C8.23369 27.8349 8.36686 27.8104 8.52673 27.7913C8.6866 27.7723 8.88644 27.7622 9.12506 27.7611C9.35926 27.76 9.57886 27.7671 9.78459 27.7819C9.98974 27.7968 10.1707 27.8192 10.327 27.849C10.4826 27.8787 10.6097 27.9154 10.7078 27.9592C10.8052 28.0031 10.8631 28.0532 10.8818 28.1098L11.5641 28.1162C11.6136 28.1165 11.6574 28.1202 11.6949 28.1275C11.7331 28.1348 11.7515 28.1439 11.7515 28.155L11.7518 28.2075L10.8746 28.1996C10.8438 28.2638 10.7655 28.3225 10.6394 28.3758C10.514 28.4291 10.3537 28.4753 10.1585 28.5142L9.83901 28.4728C9.8104 28.4687 9.78695 28.4636 9.76852 28.4573C9.75008 28.4511 9.74109 28.4442 9.74109 28.4368C9.74109 28.4267 9.76572 28.4152 9.81512 28.4022C9.86453 28.3893 9.92028 28.3732 9.98236 28.3542C10.0445 28.3352 10.1052 28.3126 10.1654 28.2866C10.225 28.2606 10.2648 28.2296 10.2854 28.1936L8.21511 28.1744C8.16069 28.2117 8.09933 28.2485 8.03223 28.2845C7.96454 28.3206 7.87516 28.3531 7.76367 28.3818C7.65217 28.4106 7.51325 28.434 7.34704 28.452C7.18024 28.4699 6.9714 28.4796 6.71892 28.4807C6.52911 28.4815 6.34446 28.4749 6.1635 28.4606C5.98255 28.4463 5.82179 28.4249 5.68139 28.3964C5.54099 28.3679 5.42595 28.3327 5.33555 28.2907C5.24588 28.2488 5.19544 28.2006 5.18497 28.1461L4.62322 28.1407C4.57366 28.1404 4.52986 28.1369 4.49049 28.1299C4.4517 28.1228 4.43208 28.1136 4.43194 28.1019L4.43164 28.0495L5.19972 28.0564C5.23364 28.0012 5.30325 27.953 5.40973 27.912C5.51606 27.871 5.646 27.8345 5.79952 27.8026L6.05673 27.8355C6.13489 27.8456 6.17368 27.8576 6.17368 27.8714C6.17368 27.8788 6.1579 27.888 6.1256 27.899C6.09271 27.9101 6.05466 27.9233 6.01027 27.9385C5.96662 27.9538 5.92355 27.9719 5.88241 27.9924C5.84067 28.0129 5.8097 28.0361 5.7889 28.0623L7.67651 28.08ZM5.78168 28.1515C5.79716 28.1859 5.83153 28.2155 5.88373 28.2404C5.93594 28.2653 6.00069 28.2858 6.07885 28.3019C6.15702 28.318 6.24462 28.3297 6.34181 28.3373C6.43959 28.3448 6.54179 28.3483 6.64842 28.3479C6.77289 28.3473 6.88129 28.3422 6.97391 28.3329C7.06594 28.3234 7.14705 28.3106 7.2174 28.2943C7.28716 28.2781 7.34851 28.2594 7.40057 28.2379C7.45248 28.2164 7.49865 28.1932 7.54053 28.1681L5.78168 28.1515ZM10.2888 28.1045C10.2735 28.0697 10.2359 28.0392 10.1773 28.0129C10.1188 27.9867 10.0439 27.9646 9.95287 27.9468C9.86202 27.9289 9.75598 27.9157 9.63475 27.9069C9.51411 27.8982 9.38079 27.8941 9.23479 27.8948C9.1053 27.8953 8.99306 27.9008 8.89971 27.911C8.8065 27.9212 8.72524 27.935 8.65622 27.9523C8.58779 27.9695 8.5288 27.9897 8.48131 28.0126C8.43323 28.0356 8.38825 28.0602 8.3471 28.0864L10.2888 28.1045Z" fill="#FCB048"/>
<path d="M8.2503 27.3847C5.54846 27.3847 2.73512 27.6066 2.28516 28.0361C2.30271 28.0513 2.31908 28.0675 2.33427 28.0844C2.71359 27.7862 5.03655 27.486 8.2503 27.486C11.5465 27.486 13.9068 27.8019 14.1926 28.1074C14.2066 28.0906 14.2216 28.0747 14.2379 28.0595C13.8662 27.6147 11.0002 27.3847 8.2503 27.3847Z" fill="url(#paint37_linear_2539_4766)"/>
<path d="M16.0327 28.9233L14.9375 29.6502C14.5836 29.8851 15.8693 32.1387 17.8091 34.6836C19.7489 37.2286 21.6084 39.1011 21.9623 38.8662L23.0575 38.1393L16.0327 28.9233Z" fill="url(#paint38_linear_2539_4766)"/>
<path d="M23.0575 38.1394C22.7035 38.3743 20.8441 36.5016 18.9043 33.9568C16.9645 31.4117 15.6789 29.1583 16.0327 28.9234C16.3866 28.6885 18.2461 30.5612 20.1859 33.1061C22.1257 35.651 23.4114 37.9045 23.0575 38.1394Z" fill="url(#paint39_linear_2539_4766)"/>
<path d="M18.8601 33.9861C17.1421 31.7321 15.5765 29.2222 16.0214 28.9268C16.0459 28.9106 16.095 28.8902 16.1124 28.9131C16.1298 28.9359 16.0887 28.9483 16.0643 28.9646C15.7822 29.1519 16.8973 31.2361 18.9486 33.9273C20.9999 36.6186 22.7439 38.2854 23.0261 38.0981C23.0506 38.0819 23.0764 38.0706 23.0938 38.0934C23.1112 38.1163 23.0744 38.1324 23.05 38.1486C22.6048 38.4438 20.578 36.2399 18.8601 33.9861Z" fill="url(#paint40_linear_2539_4766)"/>
<path d="M19.1773 33.1196C19.2453 33.1425 19.3151 33.1687 19.3869 33.1984C19.4584 33.2277 19.5385 33.2747 19.6262 33.3377C19.7143 33.4011 19.813 33.4883 19.9221 33.5988C20.0314 33.7093 20.156 33.8555 20.2952 34.0363C20.4319 34.2137 20.5532 34.3848 20.6593 34.5499C20.7652 34.7145 20.8506 34.8651 20.9152 35.0012C20.9795 35.1368 21.021 35.2549 21.0397 35.3546C21.0578 35.454 21.0477 35.5272 21.0092 35.5743L21.399 36.0969C21.4274 36.1347 21.4495 36.1702 21.4649 36.2028C21.4807 36.236 21.4833 36.2554 21.4736 36.2619L21.428 36.2924L20.9264 35.6208C20.8525 35.6346 20.7558 35.6091 20.6362 35.5442C20.517 35.4797 20.3837 35.3845 20.2365 35.2587L20.0876 34.9917C20.0746 34.9676 20.0654 34.9467 20.0603 34.9291C20.0551 34.9115 20.0559 34.9007 20.0623 34.8963C20.0712 34.8904 20.0955 34.9025 20.1353 34.9327C20.1753 34.9627 20.2216 34.9958 20.2743 35.032C20.3269 35.0682 20.3818 35.1014 20.4393 35.1321C20.4964 35.1624 20.5467 35.1746 20.5902 35.1695L19.4068 33.584C19.3426 33.5644 19.2751 33.5389 19.2047 33.5088C19.134 33.4782 19.0539 33.4291 18.9641 33.361C18.8742 33.2928 18.7734 33.2008 18.6613 33.0849C18.5489 32.9684 18.4196 32.8153 18.2721 32.6238C18.1613 32.48 18.0601 32.3356 17.9677 32.1897C17.8752 32.0438 17.8009 31.9093 17.7442 31.7859C17.6878 31.6626 17.6518 31.5547 17.636 31.4617C17.6207 31.3691 17.6335 31.3029 17.6751 31.2634L17.3542 30.8331C17.3257 30.7953 17.3034 30.7599 17.2868 30.7259C17.2704 30.6923 17.2671 30.672 17.2772 30.6652L17.3227 30.6347L17.7619 31.2226C17.8299 31.2164 17.9122 31.2415 18.0097 31.2986C18.1072 31.3557 18.2144 31.4333 18.3312 31.5316L18.4516 31.7463C18.4878 31.8117 18.4999 31.848 18.488 31.8561C18.4815 31.8604 18.4644 31.8538 18.4359 31.8356C18.4072 31.8169 18.3737 31.7957 18.3346 31.7708C18.2958 31.7464 18.2553 31.724 18.2134 31.7047C18.1712 31.6849 18.1329 31.6749 18.0981 31.6742L19.1773 33.1196ZM18.0166 31.7201C17.9956 31.7518 17.9897 31.7952 17.9982 31.8492C18.0066 31.9033 18.0264 31.9646 18.0576 32.0333C18.0889 32.1019 18.1295 32.1754 18.1792 32.2537C18.2293 32.3325 18.2854 32.4121 18.3477 32.4931C18.4203 32.5873 18.4875 32.6669 18.5495 32.7319C18.6111 32.7963 18.6692 32.8506 18.7243 32.8947C18.7788 32.9383 18.8309 32.9742 18.8797 33.0012C18.9285 33.0283 18.9756 33.0499 19.0217 33.0671L18.0166 31.7201ZM20.6701 35.1205C20.6916 35.0886 20.6965 35.0424 20.6854 34.9826C20.6744 34.9229 20.6502 34.8531 20.613 34.7737C20.576 34.6943 20.5262 34.6059 20.4635 34.5086C20.4011 34.4119 20.3274 34.3081 20.2423 34.1975C20.1668 34.0993 20.0969 34.017 20.0339 33.9521C19.9709 33.8871 19.9119 33.8333 19.8568 33.7908C19.802 33.7487 19.7503 33.7156 19.7028 33.6928C19.6549 33.6695 19.6074 33.6496 19.5606 33.6335L20.6701 35.1205Z" fill="#FCB048"/>
<path d="M20.1167 33.1527C18.5506 31.0981 16.7263 29.0873 16.0904 28.994C16.0874 29.0162 16.0827 29.038 16.0767 29.0594C16.5569 29.175 18.1656 30.7675 20.0283 33.2113C21.9389 35.718 23.0311 37.6958 22.9299 38.0904C22.9526 38.0914 22.9754 38.0934 22.9981 38.0972C23.1711 37.5567 21.7107 35.2438 20.1167 33.1527Z" fill="url(#paint41_linear_2539_4766)"/>
<defs>
<linearGradient id="paint0_linear_2539_4766" x1="11.3011" y1="41.6587" x2="33.5471" y2="-3.91188" gradientUnits="userSpaceOnUse">
<stop stop-color="#444B8C"/>
<stop offset="0.9964" stop-color="#26264F"/>
</linearGradient>
<linearGradient id="paint1_linear_2539_4766" x1="-3.90412" y1="70.6307" x2="18.3418" y2="25.06" gradientUnits="userSpaceOnUse">
<stop stop-color="#5100B8"/>
<stop offset="0.9964" stop-color="#4B00B7"/>
</linearGradient>
<linearGradient id="paint2_linear_2539_4766" x1="32.662" y1="11.9681" x2="-7.30525" y2="59.3461" gradientUnits="userSpaceOnUse">
<stop stop-color="#B800CC"/>
<stop offset="0.9964" stop-color="#4B00B7"/>
</linearGradient>
<linearGradient id="paint3_linear_2539_4766" x1="7.4658" y1="21.3607" x2="33.5897" y2="21.3607" gradientUnits="userSpaceOnUse">
<stop stop-color="#AA80F9"/>
<stop offset="0.9964" stop-color="#6165D7"/>
</linearGradient>
<linearGradient id="paint4_linear_2539_4766" x1="10.4639" y1="22.6386" x2="25.7563" y2="0.179985" gradientUnits="userSpaceOnUse">
<stop stop-color="#FCB148"/>
<stop offset="0.0521" stop-color="#FDBA46"/>
<stop offset="0.1424" stop-color="#FFC244"/>
<stop offset="0.3183" stop-color="#FFC444"/>
<stop offset="0.4849" stop-color="#FDB946"/>
<stop offset="0.7754" stop-color="#F99C4D"/>
<stop offset="0.8658" stop-color="#F8924F"/>
<stop offset="1" stop-color="#F8924F"/>
</linearGradient>
<linearGradient id="paint5_linear_2539_4766" x1="24.0945" y1="12.3251" x2="29.7475" y2="4.02296" gradientUnits="userSpaceOnUse">
<stop stop-color="#FCB148"/>
<stop offset="0.0521" stop-color="#FDBA46"/>
<stop offset="0.1424" stop-color="#FFC244"/>
<stop offset="0.3183" stop-color="#FFC444"/>
<stop offset="0.4849" stop-color="#FDB946"/>
<stop offset="0.7754" stop-color="#F99C4D"/>
<stop offset="0.8658" stop-color="#F8924F"/>
<stop offset="1" stop-color="#F8924F"/>
</linearGradient>
<linearGradient id="paint6_linear_2539_4766" x1="2.1407" y1="38.3516" x2="16.0833" y2="38.3516" gradientUnits="userSpaceOnUse">
<stop stop-color="#FCB148"/>
<stop offset="0.0521" stop-color="#FDBA46"/>
<stop offset="0.1424" stop-color="#FFC244"/>
<stop offset="0.3183" stop-color="#FFC444"/>
<stop offset="0.4849" stop-color="#FDB946"/>
<stop offset="0.7754" stop-color="#F99C4D"/>
<stop offset="0.8658" stop-color="#F8924F"/>
<stop offset="1" stop-color="#F8924F"/>
</linearGradient>
<linearGradient id="paint7_linear_2539_4766" x1="9.17607" y1="36.8859" x2="9.81734" y2="42.6386" gradientUnits="userSpaceOnUse">
<stop stop-color="#FFDB44"/>
<stop offset="1" stop-color="#FEEF06"/>
</linearGradient>
<linearGradient id="paint8_linear_2539_4766" x1="9.14422" y1="36.6298" x2="9.34117" y2="38.3966" gradientUnits="userSpaceOnUse">
<stop stop-color="#FFDB44"/>
<stop offset="1" stop-color="#FEEF06"/>
</linearGradient>
<linearGradient id="paint9_linear_2539_4766" x1="9.3566" y1="38.2085" x2="9.16035" y2="36.448" gradientUnits="userSpaceOnUse">
<stop offset="0.00359712" stop-color="#F36F56"/>
<stop offset="0.3059" stop-color="#F99C4C"/>
<stop offset="0.545" stop-color="#FDB946"/>
<stop offset="0.6817" stop-color="#FFC444"/>
<stop offset="0.8038" stop-color="#FFC244"/>
<stop offset="0.8667" stop-color="#FEBA46"/>
<stop offset="0.916" stop-color="#FCAD49"/>
<stop offset="0.958" stop-color="#F99A4D"/>
<stop offset="0.9955" stop-color="#F58152"/>
<stop offset="1" stop-color="#F57E53"/>
</linearGradient>
<linearGradient id="paint10_linear_2539_4766" x1="0.4561" y1="37.0341" x2="14.3987" y2="37.0341" gradientUnits="userSpaceOnUse">
<stop stop-color="#FCB148"/>
<stop offset="0.0521" stop-color="#FDBA46"/>
<stop offset="0.1424" stop-color="#FFC244"/>
<stop offset="0.3183" stop-color="#FFC444"/>
<stop offset="0.4849" stop-color="#FDB946"/>
<stop offset="0.7754" stop-color="#F99C4D"/>
<stop offset="0.8658" stop-color="#F8924F"/>
<stop offset="1" stop-color="#F8924F"/>
</linearGradient>
<linearGradient id="paint11_linear_2539_4766" x1="7.49146" y1="35.5685" x2="8.13274" y2="41.3212" gradientUnits="userSpaceOnUse">
<stop stop-color="#FFDB44"/>
<stop offset="1" stop-color="#FEEF06"/>
</linearGradient>
<linearGradient id="paint12_linear_2539_4766" x1="7.45962" y1="35.3124" x2="7.65657" y2="37.0791" gradientUnits="userSpaceOnUse">
<stop stop-color="#FFDB44"/>
<stop offset="1" stop-color="#FEEF06"/>
</linearGradient>
<linearGradient id="paint13_linear_2539_4766" x1="7.67164" y1="36.891" x2="7.4754" y2="35.1306" gradientUnits="userSpaceOnUse">
<stop offset="0.00359712" stop-color="#F36F56"/>
<stop offset="0.3059" stop-color="#F99C4C"/>
<stop offset="0.545" stop-color="#FDB946"/>
<stop offset="0.6817" stop-color="#FFC444"/>
<stop offset="0.8038" stop-color="#FFC244"/>
<stop offset="0.8667" stop-color="#FEBA46"/>
<stop offset="0.916" stop-color="#FCAD49"/>
<stop offset="0.958" stop-color="#F99A4D"/>
<stop offset="0.9955" stop-color="#F58152"/>
<stop offset="1" stop-color="#F57E53"/>
</linearGradient>
<linearGradient id="paint14_linear_2539_4766" x1="1.91016" y1="35.7205" x2="15.8528" y2="35.7205" gradientUnits="userSpaceOnUse">
<stop stop-color="#FCB148"/>
<stop offset="0.0521" stop-color="#FDBA46"/>
<stop offset="0.1424" stop-color="#FFC244"/>
<stop offset="0.3183" stop-color="#FFC444"/>
<stop offset="0.4849" stop-color="#FDB946"/>
<stop offset="0.7754" stop-color="#F99C4D"/>
<stop offset="0.8658" stop-color="#F8924F"/>
<stop offset="1" stop-color="#F8924F"/>
</linearGradient>
<linearGradient id="paint15_linear_2539_4766" x1="8.94505" y1="34.2549" x2="9.58632" y2="40.0076" gradientUnits="userSpaceOnUse">
<stop stop-color="#FFDB44"/>
<stop offset="1" stop-color="#FEEF06"/>
</linearGradient>
<linearGradient id="paint16_linear_2539_4766" x1="8.91336" y1="33.9988" x2="9.1103" y2="35.7655" gradientUnits="userSpaceOnUse">
<stop stop-color="#FFDB44"/>
<stop offset="1" stop-color="#FEEF06"/>
</linearGradient>
<linearGradient id="paint17_linear_2539_4766" x1="9.12572" y1="35.5774" x2="8.92948" y2="33.817" gradientUnits="userSpaceOnUse">
<stop offset="0.00359712" stop-color="#F36F56"/>
<stop offset="0.3059" stop-color="#F99C4C"/>
<stop offset="0.545" stop-color="#FDB946"/>
<stop offset="0.6817" stop-color="#FFC444"/>
<stop offset="0.8038" stop-color="#FFC244"/>
<stop offset="0.8667" stop-color="#FEBA46"/>
<stop offset="0.916" stop-color="#FCAD49"/>
<stop offset="0.958" stop-color="#F99A4D"/>
<stop offset="0.9955" stop-color="#F58152"/>
<stop offset="1" stop-color="#F57E53"/>
</linearGradient>
<linearGradient id="paint18_linear_2539_4766" x1="2.79165" y1="34.4031" x2="16.7342" y2="34.4031" gradientUnits="userSpaceOnUse">
<stop stop-color="#FCB148"/>
<stop offset="0.0521" stop-color="#FDBA46"/>
<stop offset="0.1424" stop-color="#FFC244"/>
<stop offset="0.3183" stop-color="#FFC444"/>
<stop offset="0.4849" stop-color="#FDB946"/>
<stop offset="0.7754" stop-color="#F99C4D"/>
<stop offset="0.8658" stop-color="#F8924F"/>
<stop offset="1" stop-color="#F8924F"/>
</linearGradient>
<linearGradient id="paint19_linear_2539_4766" x1="9.82701" y1="32.9374" x2="10.4683" y2="38.6901" gradientUnits="userSpaceOnUse">
<stop stop-color="#FFDB44"/>
<stop offset="1" stop-color="#FEEF06"/>
</linearGradient>
<linearGradient id="paint20_linear_2539_4766" x1="9.79516" y1="32.6813" x2="9.99211" y2="34.4481" gradientUnits="userSpaceOnUse">
<stop stop-color="#FFDB44"/>
<stop offset="1" stop-color="#FEEF06"/>
</linearGradient>
<linearGradient id="paint21_linear_2539_4766" x1="10.0075" y1="34.26" x2="9.81128" y2="32.4995" gradientUnits="userSpaceOnUse">
<stop offset="0.00359712" stop-color="#F36F56"/>
<stop offset="0.3059" stop-color="#F99C4C"/>
<stop offset="0.545" stop-color="#FDB946"/>
<stop offset="0.6817" stop-color="#FFC444"/>
<stop offset="0.8038" stop-color="#FFC244"/>
<stop offset="0.8667" stop-color="#FEBA46"/>
<stop offset="0.916" stop-color="#FCAD49"/>
<stop offset="0.958" stop-color="#F99A4D"/>
<stop offset="0.9955" stop-color="#F58152"/>
<stop offset="1" stop-color="#F57E53"/>
</linearGradient>
<linearGradient id="paint22_linear_2539_4766" x1="2.1407" y1="32.9817" x2="16.0833" y2="32.9817" gradientUnits="userSpaceOnUse">
<stop stop-color="#FCB148"/>
<stop offset="0.0521" stop-color="#FDBA46"/>
<stop offset="0.1424" stop-color="#FFC244"/>
<stop offset="0.3183" stop-color="#FFC444"/>
<stop offset="0.4849" stop-color="#FDB946"/>
<stop offset="0.7754" stop-color="#F99C4D"/>
<stop offset="0.8658" stop-color="#F8924F"/>
<stop offset="1" stop-color="#F8924F"/>
</linearGradient>
<linearGradient id="paint23_linear_2539_4766" x1="9.17606" y1="31.516" x2="9.81734" y2="37.2687" gradientUnits="userSpaceOnUse">
<stop stop-color="#FFDB44"/>
<stop offset="1" stop-color="#FEEF06"/>
</linearGradient>
<linearGradient id="paint24_linear_2539_4766" x1="9.14422" y1="31.2599" x2="9.34117" y2="33.0267" gradientUnits="userSpaceOnUse">
<stop stop-color="#FFDB44"/>
<stop offset="1" stop-color="#FEEF06"/>
</linearGradient>
<linearGradient id="paint25_linear_2539_4766" x1="9.3566" y1="32.8386" x2="9.16035" y2="31.0781" gradientUnits="userSpaceOnUse">
<stop offset="0.00359712" stop-color="#F36F56"/>
<stop offset="0.3059" stop-color="#F99C4C"/>
<stop offset="0.545" stop-color="#FDB946"/>
<stop offset="0.6817" stop-color="#FFC444"/>
<stop offset="0.8038" stop-color="#FFC244"/>
<stop offset="0.8667" stop-color="#FEBA46"/>
<stop offset="0.916" stop-color="#FCAD49"/>
<stop offset="0.958" stop-color="#F99A4D"/>
<stop offset="0.9955" stop-color="#F58152"/>
<stop offset="1" stop-color="#F57E53"/>
</linearGradient>
<linearGradient id="paint26_linear_2539_4766" x1="0.4561" y1="31.6642" x2="14.3987" y2="31.6642" gradientUnits="userSpaceOnUse">
<stop stop-color="#FCB148"/>
<stop offset="0.0521" stop-color="#FDBA46"/>
<stop offset="0.1424" stop-color="#FFC244"/>
<stop offset="0.3183" stop-color="#FFC444"/>
<stop offset="0.4849" stop-color="#FDB946"/>
<stop offset="0.7754" stop-color="#F99C4D"/>
<stop offset="0.8658" stop-color="#F8924F"/>
<stop offset="1" stop-color="#F8924F"/>
</linearGradient>
<linearGradient id="paint27_linear_2539_4766" x1="7.49146" y1="30.1986" x2="8.13274" y2="35.9513" gradientUnits="userSpaceOnUse">
<stop stop-color="#FFDB44"/>
<stop offset="1" stop-color="#FEEF06"/>
</linearGradient>
<linearGradient id="paint28_linear_2539_4766" x1="7.45962" y1="29.9425" x2="7.65657" y2="31.7092" gradientUnits="userSpaceOnUse">
<stop stop-color="#FFDB44"/>
<stop offset="1" stop-color="#FEEF06"/>
</linearGradient>
<linearGradient id="paint29_linear_2539_4766" x1="7.67164" y1="31.5211" x2="7.4754" y2="29.7606" gradientUnits="userSpaceOnUse">
<stop offset="0.00359712" stop-color="#F36F56"/>
<stop offset="0.3059" stop-color="#F99C4C"/>
<stop offset="0.545" stop-color="#FDB946"/>
<stop offset="0.6817" stop-color="#FFC444"/>
<stop offset="0.8038" stop-color="#FFC244"/>
<stop offset="0.8667" stop-color="#FEBA46"/>
<stop offset="0.916" stop-color="#FCAD49"/>
<stop offset="0.958" stop-color="#F99A4D"/>
<stop offset="0.9955" stop-color="#F58152"/>
<stop offset="1" stop-color="#F57E53"/>
</linearGradient>
<linearGradient id="paint30_linear_2539_4766" x1="1.91016" y1="30.3506" x2="15.8528" y2="30.3506" gradientUnits="userSpaceOnUse">
<stop stop-color="#FCB148"/>
<stop offset="0.0521" stop-color="#FDBA46"/>
<stop offset="0.1424" stop-color="#FFC244"/>
<stop offset="0.3183" stop-color="#FFC444"/>
<stop offset="0.4849" stop-color="#FDB946"/>
<stop offset="0.7754" stop-color="#F99C4D"/>
<stop offset="0.8658" stop-color="#F8924F"/>
<stop offset="1" stop-color="#F8924F"/>
</linearGradient>
<linearGradient id="paint31_linear_2539_4766" x1="8.94505" y1="28.8849" x2="9.58632" y2="34.6377" gradientUnits="userSpaceOnUse">
<stop stop-color="#FFDB44"/>
<stop offset="1" stop-color="#FEEF06"/>
</linearGradient>
<linearGradient id="paint32_linear_2539_4766" x1="8.91336" y1="28.6289" x2="9.11031" y2="30.3956" gradientUnits="userSpaceOnUse">
<stop stop-color="#FFDB44"/>
<stop offset="1" stop-color="#FEEF06"/>
</linearGradient>
<linearGradient id="paint33_linear_2539_4766" x1="9.12572" y1="30.2075" x2="8.92948" y2="28.447" gradientUnits="userSpaceOnUse">
<stop offset="0.00359712" stop-color="#F36F56"/>
<stop offset="0.3059" stop-color="#F99C4C"/>
<stop offset="0.545" stop-color="#FDB946"/>
<stop offset="0.6817" stop-color="#FFC444"/>
<stop offset="0.8038" stop-color="#FFC244"/>
<stop offset="0.8667" stop-color="#FEBA46"/>
<stop offset="0.916" stop-color="#FCAD49"/>
<stop offset="0.958" stop-color="#F99A4D"/>
<stop offset="0.9955" stop-color="#F58152"/>
<stop offset="1" stop-color="#F57E53"/>
</linearGradient>
<linearGradient id="paint34_linear_2539_4766" x1="1.15343" y1="29.0331" x2="15.096" y2="29.0331" gradientUnits="userSpaceOnUse">
<stop stop-color="#FCB148"/>
<stop offset="0.0521" stop-color="#FDBA46"/>
<stop offset="0.1424" stop-color="#FFC244"/>
<stop offset="0.3183" stop-color="#FFC444"/>
<stop offset="0.4849" stop-color="#FDB946"/>
<stop offset="0.7754" stop-color="#F99C4D"/>
<stop offset="0.8658" stop-color="#F8924F"/>
<stop offset="1" stop-color="#F8924F"/>
</linearGradient>
<linearGradient id="paint35_linear_2539_4766" x1="8.18879" y1="27.5675" x2="8.83007" y2="33.3202" gradientUnits="userSpaceOnUse">
<stop stop-color="#FFDB44"/>
<stop offset="1" stop-color="#FEEF06"/>
</linearGradient>
<linearGradient id="paint36_linear_2539_4766" x1="8.15695" y1="27.3114" x2="8.3539" y2="29.0782" gradientUnits="userSpaceOnUse">
<stop stop-color="#FFDB44"/>
<stop offset="1" stop-color="#FEEF06"/>
</linearGradient>
<linearGradient id="paint37_linear_2539_4766" x1="8.36932" y1="28.89" x2="8.17307" y2="27.1296" gradientUnits="userSpaceOnUse">
<stop offset="0.00359712" stop-color="#F36F56"/>
<stop offset="0.3059" stop-color="#F99C4C"/>
<stop offset="0.545" stop-color="#FDB946"/>
<stop offset="0.6817" stop-color="#FFC444"/>
<stop offset="0.8038" stop-color="#FFC244"/>
<stop offset="0.8667" stop-color="#FEBA46"/>
<stop offset="0.916" stop-color="#FCAD49"/>
<stop offset="0.958" stop-color="#F99A4D"/>
<stop offset="0.9955" stop-color="#F58152"/>
<stop offset="1" stop-color="#F57E53"/>
</linearGradient>
<linearGradient id="paint38_linear_2539_4766" x1="14.5643" y1="28.7114" x2="21.921" y2="39.7951" gradientUnits="userSpaceOnUse">
<stop stop-color="#FCB148"/>
<stop offset="0.0521" stop-color="#FDBA46"/>
<stop offset="0.1424" stop-color="#FFC244"/>
<stop offset="0.3183" stop-color="#FFC444"/>
<stop offset="0.4849" stop-color="#FDB946"/>
<stop offset="0.7754" stop-color="#F99C4D"/>
<stop offset="0.8658" stop-color="#F8924F"/>
<stop offset="1" stop-color="#F8924F"/>
</linearGradient>
<linearGradient id="paint39_linear_2539_4766" x1="19.9219" y1="33.2121" x2="15.6222" y2="37.395" gradientUnits="userSpaceOnUse">
<stop stop-color="#FFDB44"/>
<stop offset="1" stop-color="#FEEF06"/>
</linearGradient>
<linearGradient id="paint40_linear_2539_4766" x1="20.1268" y1="33.0395" x2="18.8064" y2="34.324" gradientUnits="userSpaceOnUse">
<stop stop-color="#FFDB44"/>
<stop offset="1" stop-color="#FEEF06"/>
</linearGradient>
<linearGradient id="paint41_linear_2539_4766" x1="18.8714" y1="34.1156" x2="20.1871" y2="32.8356" gradientUnits="userSpaceOnUse">
<stop offset="0.00359712" stop-color="#F36F56"/>
<stop offset="0.3059" stop-color="#F99C4C"/>
<stop offset="0.545" stop-color="#FDB946"/>
<stop offset="0.6817" stop-color="#FFC444"/>
<stop offset="0.8038" stop-color="#FFC244"/>
<stop offset="0.8667" stop-color="#FEBA46"/>
<stop offset="0.916" stop-color="#FCAD49"/>
<stop offset="0.958" stop-color="#F99A4D"/>
<stop offset="0.9955" stop-color="#F58152"/>
<stop offset="1" stop-color="#F57E53"/>
</linearGradient>
</defs>
</svg>
