<svg width="670" height="638" viewBox="0 0 670 638" fill="none" xmlns="http://www.w3.org/2000/svg">
<path d="M581.435 494.602C581.435 470.482 464.819 450.931 320.968 450.931C177.116 450.931 60.5 470.482 60.5 494.602C60.5 518.719 177.116 538.273 320.968 538.273C464.819 538.273 581.435 518.719 581.435 494.602Z" fill="#EAEDF2"/>
<path d="M503.598 178.337L459.532 275.562C459.532 275.562 421.606 243.163 440.444 201.602C459.28 160.039 503.598 178.337 503.598 178.337Z" fill="#76CBD4"/>
<path d="M349.783 475.198C455.64 475.198 541.454 409.234 541.454 327.863C541.454 246.492 455.64 180.528 349.783 180.528C243.926 180.528 158.112 246.492 158.112 327.863C158.112 409.234 243.926 475.198 349.783 475.198Z" fill="#B800CC"/>
<path d="M570.757 377.656H529.175V293.755H570.757C572.655 293.755 574.193 295.294 574.193 297.191V374.217C574.193 376.117 572.657 377.656 570.757 377.656Z" fill="#B800CC"/>
<path d="M417.481 493.614H477.676V433.419H417.481V493.614Z" fill="#5F05D2"/>
<path d="M223.766 493.614H283.961V433.419H223.766V493.614Z" fill="#76CBD4"/>
<path d="M164.099 306.532C161.664 305.803 159.997 303.825 158.341 301.657C158.163 301.458 157.953 301.175 157.775 300.973C156.753 299.647 155.697 298.242 154.363 297.05C154.263 296.814 154.04 296.722 153.862 296.52C153.283 296.025 152.546 295.595 151.844 295.247C149.079 293.734 145.601 293.166 141.796 293.572C141.259 293.614 140.643 293.69 140.139 293.808C139.584 292.932 138.997 291.979 138.129 291.237C135.812 289.255 132.725 289.169 129.444 289.725C128.592 289.898 127.74 290.073 126.813 290.28L122.276 291.363L119.946 291.979L108.855 294.623C108.462 294.788 108.249 295.158 108.302 295.504C108.435 295.818 108.802 296.033 109.151 295.98L121.136 293.048L123.466 292.435L127.072 291.557C128.002 291.35 129.009 291.108 129.973 290.98C132.751 290.548 135.38 290.639 137.262 292.248C137.841 292.744 138.294 293.383 138.706 294.135C136.612 294.649 134.649 295.477 132.898 296.589C131.91 297.097 131.069 297.731 130.293 298.523C129.732 298.945 129.281 299.414 128.865 299.959C128.66 300.134 128.537 300.281 128.414 300.425C126.792 302.498 125.717 304.988 125.4 307.525C125.072 310.253 125.471 312.953 126.778 315.173C128.694 318.617 132.801 320.677 136.515 320.496C137.623 320.49 138.743 320.296 139.762 319.867L140.548 319.534C142.569 318.404 143.942 316.619 144.791 314.691C145.143 313.988 145.302 313.273 145.462 312.557C145.816 311.205 145.947 309.763 145.921 308.387C145.913 307.929 145.903 307.47 145.816 307.043C145.258 302.656 142.999 298.617 140.858 295.079C141.206 295.024 141.552 294.971 141.898 294.916C144.126 294.717 147.986 294.66 151.377 296.557C151.967 296.861 152.481 297.199 153.026 297.616C153.461 297.988 153.893 298.358 154.284 298.842C155.141 299.778 155.951 300.821 156.729 301.786C157.151 302.349 157.542 302.831 157.964 303.392C159.52 305.326 161.2 307.114 163.714 307.811C164.125 307.913 164.487 307.669 164.545 307.368C164.647 306.949 164.403 306.59 164.099 306.532ZM144.351 311.446C144.223 312.24 144.063 312.956 143.714 313.658C143.022 315.521 141.725 317.272 139.862 318.333C139.188 318.711 138.449 318.931 137.71 319.151C134.193 319.804 129.963 317.888 127.968 314.476C126.839 312.455 126.461 310.028 126.81 307.57C127.069 305.334 127.929 303.211 129.428 301.285C129.551 301.141 129.677 300.997 129.8 300.85C130.251 300.381 130.699 299.914 131.229 299.414C131.881 298.769 132.646 298.172 133.553 297.692C135.304 296.586 137.267 295.755 139.474 295.289C141.534 298.856 143.874 302.863 144.511 307.219C144.673 308.259 144.676 309.365 144.448 310.573C144.466 310.843 144.409 311.145 144.351 311.446Z" fill="#76CBD4"/>
<path d="M559.188 333.66C559.188 323.3 560.716 314.903 562.598 314.903C564.482 314.903 566.008 323.3 566.008 333.66C566.008 344.02 564.482 352.417 562.598 352.417C560.714 352.417 559.188 344.02 559.188 333.66Z" fill="#060633"/>
<path d="M477.675 310.298C477.675 303.612 483.095 298.19 489.783 298.19C496.469 298.19 501.892 303.61 501.892 310.298C501.892 316.984 496.472 322.406 489.783 322.406C483.098 322.404 477.675 316.984 477.675 310.298Z" fill="#060633"/>
<path d="M277.583 215.828C276.71 215.828 275.901 215.275 275.612 214.4C275.253 213.309 275.845 212.135 276.933 211.776C277.384 211.627 322.365 197.016 361.916 203.329C363.048 203.51 363.821 204.574 363.64 205.706C363.46 206.838 362.395 207.612 361.263 207.431C322.698 201.277 278.676 215.576 278.238 215.72C278.018 215.794 277.798 215.828 277.583 215.828Z" fill="#060633"/>
<path d="M254.296 406.217H433.374V411.988H341.499C332.239 411.988 324.736 420.388 324.736 430.748C324.736 441.111 332.239 449.511 341.499 449.511H433.374V454.92H254.296C242.279 454.92 232.535 444.017 232.535 430.567C232.535 417.117 242.277 406.217 254.296 406.217Z" fill="#041426"/>
<path d="M316.567 430.57C316.567 417.12 326.308 406.217 338.327 406.217H433.371V411.988H341.496C332.237 411.988 324.733 420.388 324.733 430.748C324.733 441.111 332.237 449.511 341.496 449.511H433.371V454.92H338.327C326.311 454.92 316.567 444.017 316.567 430.57Z" fill="#041426"/>
<path d="M341.495 412.007H433.37V412.135C425.026 413.21 418.542 421.14 418.542 430.766C418.542 440.395 425.023 448.326 433.37 449.4V449.529H341.495C332.236 449.529 324.732 441.129 324.732 430.766C324.732 420.409 332.238 412.007 341.495 412.007Z" fill="white"/>
<path d="M324.732 430.57C324.732 420.21 332.236 411.81 341.495 411.81H433.37V412.334C429.057 412.887 425.157 415.188 422.476 418.7C404.098 417.07 349.378 414.863 343.605 449.33H341.495C332.238 449.327 324.732 440.93 324.732 430.57Z" fill="#EAEDF2"/>
<path d="M487.631 454.894H253.463V460.759H373.602C385.71 460.759 395.522 469.29 395.522 479.818C395.522 490.343 385.71 498.874 373.602 498.874H253.463V504.37H487.631C503.348 504.37 516.085 493.297 516.085 479.632C516.083 465.972 503.346 454.894 487.631 454.894Z" fill="#5100B8"/>
<path d="M406.202 479.632C406.202 465.97 393.462 454.894 377.748 454.894H253.463V460.759H373.602C385.71 460.759 395.522 469.29 395.522 479.818C395.522 490.343 385.71 498.874 373.602 498.874H253.463V504.37H377.751C393.462 504.37 406.202 493.297 406.202 479.632Z" fill="#5F05D2"/>
<path d="M373.602 460.78H253.463V460.911C264.376 462.004 272.855 470.058 272.855 479.839C272.855 489.62 264.379 497.676 253.463 498.767V498.898H373.602C385.71 498.898 395.522 490.367 395.522 479.839C395.522 469.311 385.71 460.78 373.602 460.78Z" fill="white"/>
<path d="M395.522 479.632C395.522 469.109 385.71 460.573 373.602 460.573H253.463V460.704C259.106 461.268 264.093 463.697 267.6 467.262C291.63 465.608 363.297 463.679 370.85 498.688H373.604C385.71 498.69 395.522 490.157 395.522 479.632Z" fill="#EAEDF2"/>
<path d="M158.039 487.817C159.025 487.817 159.892 487.285 160.052 486.533L211.187 246.072C211.365 245.244 210.605 244.463 209.491 244.332C208.383 244.196 207.334 244.764 207.159 245.595L156.024 486.056C155.846 486.884 156.606 487.665 157.72 487.793C157.824 487.809 157.932 487.817 158.039 487.817Z" fill="#1F3140"/>
<path d="M77.1133 487.41C78.0988 487.426 78.9794 486.905 79.1602 486.158L136.732 246.505C136.931 245.679 136.192 244.887 135.083 244.741C133.977 244.589 132.916 245.142 132.717 245.97L75.1451 485.623C74.9459 486.449 75.685 487.24 76.7936 487.387C76.901 487.402 77.0085 487.41 77.1133 487.41Z" fill="#1F3140"/>
<path d="M128.333 277.582H201.921C203.019 277.582 203.91 276.904 203.91 276.062C203.91 275.221 203.022 274.542 201.921 274.542H128.333C127.235 274.542 126.344 275.221 126.344 276.062C126.344 276.904 127.235 277.582 128.333 277.582Z" fill="#1F3140"/>
<path d="M117.337 320.569H192.853C193.98 320.569 194.895 319.888 194.895 319.049C194.895 318.208 193.983 317.529 192.853 317.529H117.337C116.21 317.529 115.295 318.21 115.295 319.049C115.295 319.89 116.207 320.569 117.337 320.569Z" fill="#1F3140"/>
<path d="M106.075 367.146H181.591C182.718 367.146 183.633 366.467 183.633 365.626C183.633 364.785 182.721 364.106 181.591 364.106H106.075C104.948 364.106 104.033 364.785 104.033 365.626C104.033 366.467 104.945 367.146 106.075 367.146Z" fill="#1F3140"/>
<path d="M94.8369 417.673H171.208C172.379 417.673 173.325 416.994 173.325 416.153C173.325 415.312 172.379 414.633 171.208 414.633H94.8369C93.6654 414.633 92.7192 415.312 92.7192 416.153C92.7219 416.992 93.668 417.673 94.8369 417.673Z" fill="#1F3140"/>
<path d="M148.515 511.391C181.233 511.918 207.876 504.87 208.023 495.653C208.173 486.436 181.77 478.536 149.052 478.01C116.334 477.483 89.6931 484.53 89.5437 493.748C89.3943 502.965 115.796 510.864 148.515 511.391Z" fill="#5100B8"/>
<path d="M208.023 495.653L208.526 484.999L197.733 486.43L90.0463 483.094L89.5431 493.748L124.733 505.329L174.94 499.794L208.023 495.653Z" fill="#5100B8"/>
<path d="M149.017 500.737C181.736 501.264 208.379 494.217 208.526 484.999C208.675 475.782 182.27 467.883 149.555 467.356C116.836 466.829 90.1958 473.877 90.0464 483.094C89.897 492.311 116.299 500.213 149.017 500.737Z" fill="#5F05D2"/>
<path d="M136.47 488.802C169.188 489.329 195.829 482.282 195.978 473.064C196.125 463.847 169.723 455.948 137.007 455.421C104.292 454.894 77.6484 461.941 77.499 471.159C77.3497 480.376 103.752 488.276 136.47 488.802Z" fill="#5100B8"/>
<path d="M195.975 473.062L196.479 462.411L185.689 463.839L77.9992 460.505L77.496 471.156L112.688 482.74L162.895 477.202L195.975 473.062Z" fill="#5100B8"/>
<path d="M136.97 478.149C169.689 478.675 196.332 471.628 196.479 462.411C196.628 453.193 170.223 445.294 137.508 444.767C104.789 444.24 78.1487 451.288 77.9993 460.505C77.8525 469.723 104.255 477.622 136.97 478.149Z" fill="#5F05D2"/>
<path d="M150.683 474.409C183.402 474.936 210.042 467.889 210.192 458.671C210.341 449.454 183.936 441.554 151.221 441.028C118.502 440.501 91.8616 447.548 91.7122 456.766C91.5628 465.983 117.965 473.882 150.683 474.409Z" fill="#5100B8"/>
<path d="M210.191 459.022L210.694 448.368L199.904 449.796L92.2149 446.463L91.7117 457.116L126.901 468.698L177.108 463.163L210.191 459.022Z" fill="#5100B8"/>
<path d="M151.186 464.106C183.904 464.633 210.545 457.586 210.694 448.368C210.844 439.151 184.439 431.252 151.723 430.725C119.005 430.198 92.3644 437.245 92.215 446.463C92.0656 455.68 118.468 463.579 151.186 464.106Z" fill="#5F05D2"/>
<path d="M193.973 447.223L185.765 447.102C185.644 446.801 185.4 446.557 185.157 446.313C185.036 446.13 184.792 445.949 184.609 445.826C183.938 445.218 183.028 444.733 181.873 444.306C180.169 443.575 178.041 443.09 175.549 442.726C175.428 442.665 175.305 442.665 175.184 442.665C172.996 442.301 170.564 442.178 168.008 442.12H165.576C161.137 442.241 157.732 442.788 154.936 443.761C153.599 444.246 152.383 444.793 151.227 445.462C151.167 445.401 151.167 445.401 151.167 445.462C150.315 445.889 149.587 446.374 148.795 446.921C148.127 447.349 147.519 447.713 146.788 448.077C146.788 448.077 146.727 448.138 146.667 448.138C143.81 449.597 140.403 450.326 135.539 450.266C130.311 450.145 126.358 449.05 125.14 447.469C124.836 447.105 124.715 446.738 124.715 446.376C124.715 446.253 124.715 446.193 124.775 446.072C124.836 445.708 124.959 445.341 125.2 444.977C125.868 443.944 127.208 443.032 128.848 442.243C128.908 442.243 128.908 442.243 128.969 442.18C129.152 442.12 129.396 442 129.577 441.937L127.449 441.696L122.16 441.088C122.1 441.088 121.976 441.148 121.916 441.208C120.336 441.816 118.997 442.728 118.145 443.701C118.145 443.763 118.145 443.763 118.084 443.763C117.901 444.065 117.66 444.371 117.537 444.675C117.416 444.919 117.293 445.221 117.293 445.464C117.233 445.585 117.233 445.648 117.233 445.768L114.68 445.708H114.559L109.208 445.648L106.044 445.587V446.562L105.984 446.866V447.598L111.396 447.658L117.537 447.778C117.901 448.387 118.449 448.934 119.177 449.422C121.426 450.942 125.318 451.974 129.818 452.522H129.878C131.946 452.766 134.074 452.947 136.262 453.007C144.411 453.128 149.823 452.095 154.079 449.907C154.199 449.907 154.26 449.846 154.323 449.786C155.114 449.422 155.903 448.997 156.634 448.51C156.694 448.51 156.694 448.449 156.757 448.449C156.878 448.329 157.001 448.266 157.122 448.208C158.217 447.477 159.25 446.869 160.282 446.444C162.835 445.228 165.39 444.741 169.282 444.804C171.41 444.804 173.659 445.108 175.423 445.593C176.518 445.897 177.428 446.324 178.038 446.811C178.159 446.932 178.282 447.053 178.282 447.176C178.646 447.48 178.77 447.844 178.77 448.269C178.77 448.573 178.709 448.877 178.586 449.12C178.526 449.424 178.342 449.728 178.099 449.972C177.491 450.764 176.518 451.372 175.667 451.796C175.423 451.919 175.179 452.04 174.938 452.16L175.667 452.281L182.234 453.073C182.903 452.769 183.571 452.344 184.179 451.977C185.151 451.248 185.882 450.397 186.124 449.364C186.124 449.244 186.184 449.181 186.184 449.06L196.948 449.244V447.296L193.973 447.223Z" fill="white"/>
<path d="M150.774 458.875C183.492 459.402 210.133 452.354 210.282 443.137C210.431 433.92 184.027 426.02 151.311 425.494C118.593 424.967 91.952 432.014 91.8026 441.232C91.6532 450.449 118.055 458.348 150.774 458.875Z" fill="#5100B8"/>
<path d="M210.281 443.137L210.785 432.483L199.995 433.914L92.3052 430.578L91.802 441.232L126.992 452.813L177.199 447.278L210.281 443.137Z" fill="#5100B8"/>
<path d="M151.276 448.221C183.995 448.748 210.638 441.701 210.785 432.483C210.934 423.266 184.529 415.367 151.814 414.84C119.095 414.313 92.4547 421.361 92.3053 430.578C92.1559 439.795 118.558 447.697 151.276 448.221Z" fill="#5F05D2"/>
<path d="M194.219 431.354L185.89 431.233C185.83 431.173 185.83 431.11 185.77 431.05C185.709 430.926 185.586 430.746 185.466 430.622C184.737 429.771 183.581 429.042 181.998 428.434C181.878 428.371 181.817 428.313 181.754 428.371C181.026 428.067 180.295 427.826 179.443 427.582C179.079 427.522 178.654 427.399 178.227 427.339C178.227 427.278 178.227 427.278 178.227 427.278C175.368 426.67 171.903 426.306 168.134 426.246H166.189C166.129 426.246 166.129 426.246 166.069 426.246C158.041 426.369 153.421 428.009 149.348 430.746C149.165 430.806 149.044 430.929 148.861 431.05C148.496 431.291 148.132 431.534 147.765 431.718C147.461 431.901 147.157 432.082 146.793 432.266C146.305 432.509 145.76 432.753 145.212 432.934C142.66 433.969 139.68 434.454 135.604 434.394C133.476 434.331 131.529 434.15 129.888 433.725C128.004 433.361 126.544 432.811 125.692 432.022C125.692 432.022 125.692 432.082 125.632 432.022C125.509 431.901 125.328 431.778 125.208 431.597C125.147 431.477 125.024 431.354 125.024 431.233C124.964 431.11 124.904 431.05 124.904 430.929C124.843 430.809 124.843 430.625 124.843 430.504C124.843 428.924 126.607 427.464 128.916 426.371C129.16 426.248 129.404 426.188 129.645 426.067L122.288 425.216C120.584 425.824 119.125 426.799 118.276 427.831C117.788 428.376 117.484 428.924 117.363 429.535C117.303 429.658 117.303 429.776 117.303 429.899L112.256 429.839L109.276 429.776L106.112 429.716V431.66L108.909 431.721L117.605 431.841C117.848 432.266 118.213 432.693 118.637 433.057C118.821 433.241 119.062 433.361 119.245 433.545C122.102 435.429 127.514 436.645 133.534 436.949C134.446 437.009 135.358 437.07 136.33 437.07C143.323 437.19 148.247 436.462 152.199 434.942C153.476 434.396 154.692 433.849 155.787 433.117C156.091 432.934 156.395 432.753 156.699 432.57C157.611 431.962 158.463 431.477 159.315 430.989C162.174 429.469 164.971 428.801 169.408 428.922C170.503 428.922 171.596 428.982 172.629 429.165C172.629 429.165 172.689 429.105 172.752 429.165C174.576 429.349 176.277 429.773 177.372 430.442C178.041 430.746 178.468 431.173 178.709 431.658C178.769 431.778 178.83 431.841 178.769 431.962C178.89 432.085 178.89 432.205 178.89 432.389C178.89 432.572 178.83 432.813 178.769 432.997C178.769 433.057 178.769 433.178 178.709 433.238C178.345 434.273 177.312 435.002 176.337 435.61C175.852 435.851 175.425 436.095 175.061 436.278L176.217 436.399L182.357 437.13C183.817 436.462 185.214 435.55 185.885 434.331C186.005 434.09 186.129 433.786 186.189 433.479C186.189 433.359 186.249 433.296 186.249 433.175L197.01 433.359L197.071 432.326V431.414L194.219 431.354Z" fill="white"/>
<path d="M150.85 443.766C183.566 444.293 210.209 437.245 210.358 428.028C210.505 418.811 184.103 410.911 151.387 410.385C118.669 409.858 92.0283 416.905 91.8789 426.123C91.7295 435.34 118.132 443.239 150.85 443.766Z" fill="#5100B8"/>
<path d="M210.355 428.028L210.858 417.374L200.069 418.803L92.3791 415.469L91.8759 426.123L127.068 437.704L177.275 432.169L210.355 428.028Z" fill="#5100B8"/>
<path d="M151.35 433.112C184.069 433.639 210.712 426.592 210.859 417.374C211.008 408.157 184.606 400.258 151.888 399.731C119.172 399.204 92.5285 406.252 92.3791 415.469C92.2324 424.686 118.635 432.586 151.35 433.112Z" fill="#5F05D2"/>
<path d="M195.796 416.274L194.156 416.211H192.636L185.947 416.09C185.764 415.849 185.583 415.545 185.339 415.301C184.912 414.877 184.367 414.512 183.759 414.146C183.211 413.842 182.663 413.598 181.995 413.294C180.231 412.565 177.983 412.017 175.367 411.653C173.239 411.352 170.807 411.168 168.191 411.108H165.699C162.051 411.168 159.071 411.595 156.578 412.261C154.33 412.932 152.443 413.781 150.682 414.814C150.074 415.178 149.466 415.545 148.918 415.97C148.249 416.397 147.518 416.821 146.79 417.186C143.933 418.645 140.589 419.374 135.722 419.253C130.614 419.13 126.662 418.158 125.385 416.517C125.265 416.457 125.205 416.337 125.142 416.213C124.961 415.972 124.898 415.666 124.898 415.362C124.958 413.721 126.782 412.261 129.214 411.229C129.398 411.108 129.579 411.045 129.762 410.985L122.343 410.073C120.639 410.741 119.242 411.653 118.39 412.688C117.782 413.357 117.418 414.085 117.358 414.816L110.242 414.696H109.21L106.17 414.636V416.58L108.602 416.641L117.662 416.761C117.782 416.945 117.906 417.125 118.026 417.309C119.122 418.645 121.431 419.741 124.35 420.532C124.35 420.532 124.41 420.532 124.471 420.532C127.815 421.445 132.071 421.929 136.448 421.992C140.948 422.053 144.596 421.809 147.696 421.078C151.161 420.409 153.96 419.253 156.392 417.733C156.513 417.673 156.636 417.553 156.757 417.492C158.277 416.517 159.613 415.728 160.953 415.181C163.324 414.148 165.817 413.781 169.465 413.844C173.234 413.904 177.493 414.636 178.648 416.276C178.648 416.337 178.709 416.397 178.709 416.397C178.829 416.638 178.952 416.882 178.952 417.125C178.952 417.186 178.952 417.186 178.952 417.249C178.952 417.553 178.892 417.857 178.769 418.161C178.709 418.221 178.709 418.281 178.648 418.404C177.917 419.741 176.216 420.653 175.121 421.14L180.166 421.749L182.414 422.053C182.718 421.932 183.023 421.749 183.266 421.628C184.663 420.839 185.819 419.864 186.246 418.528C186.246 418.528 186.246 418.467 186.246 418.407C186.306 418.284 186.367 418.163 186.367 418.043L192.872 418.163L196.52 418.224H197.067L197.128 417.191V416.279H195.796V416.274Z" fill="white"/>
<path d="M137.551 431.825C170.27 432.352 196.913 425.305 197.06 416.087C197.209 406.87 170.804 398.971 138.089 398.444C105.37 397.917 78.7271 404.965 78.5803 414.182C78.4336 423.4 104.836 431.299 137.551 431.825Z" fill="#5100B8"/>
<path d="M197.059 416.087L197.562 405.434L186.772 406.862L79.0829 403.528L78.5797 414.182L113.772 425.763L163.979 420.228L197.059 416.087Z" fill="#5100B8"/>
<path d="M138.054 421.172C170.772 421.699 197.413 414.651 197.562 405.434C197.712 396.216 171.307 388.317 138.591 387.79C105.873 387.264 79.2324 394.311 79.083 403.528C78.9362 412.746 105.338 420.645 138.054 421.172Z" fill="#5F05D2"/>
<path d="M180.842 404.294H178.47L172.633 404.171C172.209 403.442 171.477 402.713 170.385 402.105C170.264 402.045 170.201 401.985 170.081 401.922C169.593 401.678 169.048 401.434 168.437 401.251C167.648 400.95 166.797 400.643 165.824 400.462C162.844 399.673 159.076 399.246 154.88 399.186H152.995C152.935 399.186 152.935 399.186 152.875 399.186C151.599 399.186 150.382 399.246 149.227 399.367C148.131 399.43 147.099 399.61 146.126 399.731C141.687 400.522 138.526 401.982 135.667 403.987C135.242 404.231 134.815 404.532 134.39 404.776C134.33 404.836 134.33 404.776 134.33 404.776C134.086 404.959 133.842 405.08 133.538 405.203C130.682 406.663 127.275 407.392 122.41 407.331C120.647 407.271 119.066 407.15 117.667 406.907C114.87 406.419 112.803 405.63 112.011 404.535C111.767 404.233 111.647 403.927 111.586 403.563C111.586 403.502 111.586 403.502 111.586 403.442C111.647 402.407 112.375 401.434 113.531 400.585C114.139 400.098 114.931 399.673 115.72 399.309C115.963 399.188 116.207 399.126 116.448 399.005L109.029 398.153C108.604 398.274 108.24 398.455 107.873 398.638C106.717 399.246 105.684 399.975 105.016 400.766C105.016 400.766 105.016 400.826 104.956 400.826C104.468 401.434 104.164 402.163 104.104 402.831L101.247 402.771H99.4232L96.0791 402.711L92.9157 402.648V403.62L92.8555 403.924V404.655L99.4232 404.776H101.247L104.411 404.836C104.531 405.08 104.715 405.263 104.898 405.507C106.539 407.331 110.431 408.668 115.235 409.336C117.667 409.763 120.403 410.005 123.139 410.067C132.807 410.188 138.523 408.728 143.204 405.688C143.325 405.628 143.385 405.567 143.508 405.507C146.428 403.623 148.737 402.525 152.081 402.04C152.081 402.04 152.081 402.04 152.141 402.04C153.297 401.919 154.633 401.856 156.154 401.856C160.593 401.917 165.701 402.952 165.638 405.324C165.638 405.628 165.578 405.932 165.455 406.176V406.236C164.847 407.696 162.902 408.668 161.807 409.216L169.103 410.067C170.563 409.397 172.023 408.484 172.691 407.208C172.751 407.148 172.811 407.027 172.811 406.904C172.932 406.784 172.932 406.6 172.995 406.417C172.995 406.296 173.055 406.233 173.055 406.113L177.615 406.173L183.819 406.293V404.346L180.842 404.294Z" fill="white"/>
<path d="M155.807 406.309C188.526 406.836 215.166 399.789 215.316 390.571C215.465 381.354 189.06 373.455 156.345 372.928C123.626 372.401 96.9856 379.449 96.8362 388.666C96.6868 397.883 123.092 405.783 155.807 406.309Z" fill="#5406B8"/>
<path d="M215.315 390.571L215.818 379.918L205.028 381.349L97.3388 378.012L96.8356 388.666L132.025 400.25L182.232 394.712L215.315 390.571Z" fill="#5100B8"/>
<path d="M156.31 395.656C189.028 396.182 215.669 389.135 215.818 379.918C215.968 370.7 189.563 362.801 156.847 362.274C124.129 361.748 97.4883 368.795 97.3389 378.012C97.1921 387.232 123.594 395.132 156.31 395.656Z" fill="#5F05D2"/>
<path d="M201.212 378.817L199.084 378.757L190.876 378.633C190.755 378.392 190.572 378.148 190.268 377.905C190.207 377.782 190.145 377.721 190.024 377.601C189.964 377.601 189.903 377.54 189.841 377.417C189.172 376.872 188.2 376.322 186.981 375.837C183.758 374.561 178.893 373.709 173.117 373.646H170.685C167.765 373.709 165.273 374.01 163.145 374.437C163.085 374.437 163.022 374.498 163.022 374.498C159.982 375.166 157.549 376.201 155.361 377.538C154.874 377.842 154.389 378.146 153.901 378.51C153.233 378.937 152.502 379.362 151.773 379.726C148.916 381.186 145.509 381.915 140.645 381.794C135.477 381.673 131.525 380.638 130.309 379.058C130.005 378.694 129.884 378.327 129.884 377.902C129.884 376.262 131.708 374.802 134.08 373.766C134.263 373.706 134.505 373.586 134.688 373.523L127.268 372.611C125.565 373.282 124.168 374.251 123.316 375.287C122.708 375.957 122.404 376.626 122.344 377.354L114.136 377.234L111.156 377.174V379.121L122.648 379.304C124.472 382.528 132.62 384.412 141.376 384.533C145.208 384.593 148.492 384.412 151.288 383.925C155.605 383.254 158.889 381.917 161.748 380.033C162.356 379.606 162.964 379.244 163.512 378.937L163.572 378.877C166.735 377.053 169.592 376.264 174.456 376.385C178.833 376.445 183.941 377.417 183.881 379.789C183.881 380.091 183.821 380.397 183.7 380.701C183.092 382.161 181.208 383.194 180.052 383.681L186.74 384.533H187.044L187.348 384.593C189.172 383.741 190.813 382.646 191.18 380.945C191.24 380.824 191.3 380.701 191.3 380.581L200.117 380.701L202.064 380.761V378.814H201.212V378.817Z" fill="white"/>
<path d="M303.236 454.042C302.725 418.195 274.061 389.533 239.209 390.029C204.36 390.524 176.519 419.987 177.03 455.837C177.541 491.685 206.205 520.346 241.054 519.851C275.906 519.356 303.744 489.892 303.236 454.042Z" fill="#5F05D2"/>
<path d="M243.727 449.222C238.315 446.971 234.543 445.087 232.174 442.898C231.93 442.715 231.749 442.534 231.566 442.29C229.802 440.406 228.95 438.338 228.89 435.602C228.83 430.738 232.174 425.082 241.234 424.962C248.835 424.841 253.699 427.457 256.191 428.914L258.988 420.826C255.583 418.821 250.719 416.934 243.603 416.813L243.483 405.017H241.902L236.126 405.138L236.247 411.278L236.307 417.419C225.483 419.366 218.614 427.087 218.795 437.18C218.795 439.491 219.219 441.557 219.95 443.381C220.011 443.685 220.134 443.928 220.255 444.232C222.991 450.433 229.498 454.386 238.556 457.913C247.312 461.438 251.993 465.453 252.056 472.142C252.179 479.074 246.583 484.119 238.191 484.242C231.624 484.362 225.423 482.114 221.167 479.257L218.551 487.161L218.43 487.466C222.626 490.445 229.739 492.513 236.551 492.513L236.734 504.797L244.151 504.674L243.968 492.026C247.432 491.418 250.473 490.202 252.968 488.558C259.231 484.606 262.392 478.038 262.332 471.169C262.151 460.348 255.95 454.147 243.727 449.222Z" fill="white"/>
<path d="M412.865 235.573C412.865 235.573 409.749 256.047 414.458 256.052C419.17 256.057 429.043 247.618 447.635 250.357C466.227 253.093 488.819 258.728 504.295 235.201C519.771 211.671 488.743 202.503 488.743 202.503L412.865 235.573Z" fill="#041426"/>
<path d="M452.699 236.75L357.998 238.131L356.321 233.809L451.118 173.258L543.046 168.766L544.545 172.634L452.699 236.75Z" fill="#1F3140"/>
<path d="M384.182 304.412C384.867 302.509 386.963 301.523 388.866 302.205C390.769 302.889 391.754 304.986 391.07 306.888C390.386 308.791 388.292 309.776 386.389 309.095C384.486 308.408 383.501 306.314 384.182 304.412Z" fill="#5F05D2"/>
<path d="M387.257 305.636C383.499 305.09 380.33 339.405 380.33 339.405C380.33 339.405 382.715 340.726 383.944 340.534C385.174 340.343 386.101 335.744 386.101 335.744L385.894 340.618C385.894 340.618 390.027 341.038 391.532 340.126C391.529 340.123 393.201 306.498 387.257 305.636Z" fill="#5F05D2"/>
<path d="M386.679 305.392L391.358 230.216L391.869 229.886L443.522 196.819L445.126 199.33L393.989 232.066L389.028 305.42L386.679 305.392Z" fill="#5F05D2"/>
<path d="M493.711 273.509C493.926 276.73 492.678 280.041 493.574 283.141C494.762 287.248 499.246 289.531 501.151 293.36C503.146 297.369 502.097 302.637 504.917 306.115C505.921 307.352 507.318 308.212 508.385 309.394C510.846 312.122 511.139 316.564 509.058 319.591C506.741 322.964 502.268 324.144 498.177 324.12C494.086 324.097 490.026 323.132 485.937 323.326C481.781 323.523 477.716 324.914 473.557 324.781C467.799 324.592 462.408 321.408 458.668 317.026C454.928 312.644 452.69 307.158 451.261 301.578C450.716 299.45 450.279 297.288 450.158 295.095C449.689 286.559 454.013 278.497 459.014 271.562C461.296 268.396 463.878 265.246 467.413 263.592C475.444 259.837 492.972 262.368 493.711 273.509Z" fill="#041426"/>
<path d="M453.75 487.093C453.75 487.093 455.213 501.531 452.264 503.169C446.926 506.136 437.079 508.964 437.905 511.511C438.73 514.059 462.331 514.158 462.986 511.836C463.641 509.514 460.997 502.407 463.798 488.571L453.75 487.093Z" fill="#EDA792"/>
<path d="M462.75 506.647C463.002 509.231 463.219 511.006 462.986 511.834C462.331 514.156 438.73 514.056 437.905 511.509C437.294 509.619 442.504 507.491 447.45 505.368C448.619 507.334 451.114 510.398 462.75 506.647Z" fill="#041426"/>
<path d="M498.015 486.679C498.015 486.679 501.914 500.659 499.288 502.774C494.534 506.605 485.311 511.069 486.559 513.44C487.806 515.81 511.079 511.889 511.328 509.488C511.577 507.088 507.761 500.536 508.168 486.425L498.015 486.679Z" fill="#EDA792"/>
<path d="M510.213 504.417C510.9 506.922 511.416 508.631 511.33 509.486C511.081 511.886 487.805 515.807 486.56 513.438C485.635 511.679 490.41 508.694 494.921 505.761C496.409 507.499 499.387 510.091 510.213 504.417Z" fill="#041426"/>
<path d="M456.503 359.098C456.503 359.098 450.092 366.863 447.201 375.952C444.308 385.041 451.982 492.731 451.982 492.731H464.79C464.79 492.731 471.583 396.83 471.583 395.978C471.583 392.628 496.806 492.731 496.806 492.731H509.592C509.592 492.731 502.674 375.52 486.611 359.098L471.583 360.028L456.503 359.098Z" fill="#1F3140"/>
<path d="M456.5 355.069V359.098C456.5 359.098 464.143 366.536 486.608 359.098L486.661 355.069L466.934 353.83L456.5 355.069Z" fill="#041426"/>
<path d="M464.138 306.485C464.138 306.485 456.176 306.188 452.138 308.98C449.247 310.974 442.868 322.225 442.868 322.225L450.193 328.452C450.193 328.452 448.448 335.24 455.267 338.647L456.501 355.069C456.501 355.069 469.309 362.507 486.662 355.069C486.662 355.069 490.905 326.17 492.978 329.71C494.055 331.55 495.145 332.85 495.145 332.85L509.009 324.076C509.009 324.076 496.713 308.427 492.81 305.955C488.295 303.096 475.628 305.549 475.628 305.549L464.138 306.485Z" fill="white"/>
<path d="M460.644 281.288C460.644 281.288 459.768 279.569 458.856 280.124C456.534 281.54 458.592 284.003 459.957 284.638L460.644 281.288Z" fill="#EDA792"/>
<path d="M476.282 263.432C482.758 264.604 487.41 270.543 487.009 277.113C486.878 279.273 486.234 281.264 485.212 282.992C482.897 287.321 480.995 290.807 478.846 293.255C476.665 295.737 475.436 298.91 475.528 302.213L475.622 305.549C467.61 308.471 464.483 306.461 464.483 306.461L465.597 296.725C457.512 294.811 460.335 279.81 460.843 275.339L460.856 275.341C460.869 275.174 460.882 275.006 460.901 274.836C461.755 267.358 468.75 262.072 476.282 263.432Z" fill="#EDA792"/>
<path d="M475.804 276.723C477.785 279.692 479.916 282.622 481.273 285.914C481.423 286.276 482.471 288.988 482.052 289.24C484.348 287.874 485.975 285.634 487.39 283.367C489.841 279.438 489.836 274.382 487.86 270.26C485.904 266.184 482.12 263.752 477.748 262.887C473.06 261.962 467.716 262.958 464.372 266.578C461.232 269.974 460.574 274.647 459.759 279.011C460.674 274.115 467.732 271.193 471.907 269.903C471.786 269.94 474.378 274.506 474.517 274.731C474.931 275.402 475.364 276.062 475.804 276.723Z" fill="#041426"/>
<path d="M480.822 286.189C481.082 285.793 481.485 285.513 481.941 285.387C482.882 285.128 484.512 284.913 485.479 286.126C486.897 287.908 483.194 291.782 480.253 289.31C480.253 289.31 479.449 288.299 480.822 286.189Z" fill="#EDA792"/>
<path d="M462.785 281.658C462.796 281.026 463.317 280.523 463.949 280.533C464.581 280.544 465.084 281.065 465.073 281.697C465.063 282.329 464.541 282.832 463.91 282.821C463.278 282.811 462.775 282.289 462.785 281.658Z" fill="#041426"/>
<path d="M473.377 284.087C473.387 283.456 473.909 282.952 474.541 282.963C475.172 282.973 475.675 283.495 475.665 284.126C475.654 284.758 475.133 285.261 474.501 285.251C473.87 285.24 473.366 284.719 473.377 284.087Z" fill="#041426"/>
<path d="M463.928 289.677C463.928 289.677 465.435 288.59 466.012 288.771C466.591 288.951 466.887 289.667 466.887 289.667C466.887 289.667 467.259 288.975 467.969 288.988C468.68 289.001 470.153 290.964 470.153 290.964C470.153 290.964 468.03 294.028 465.889 293.564C463.708 293.092 463.946 289.835 463.946 289.835L463.928 289.677Z" fill="#EE8255"/>
<path d="M476.953 282.777C477.089 282.795 477.231 282.753 477.338 282.654C477.53 282.475 477.54 282.174 477.362 281.983C477.309 281.925 476.012 280.57 473.892 280.394C473.63 280.373 473.399 280.567 473.378 280.829C473.357 281.092 473.572 281.327 473.813 281.343C475.58 281.492 476.657 282.619 476.667 282.63C476.743 282.714 476.848 282.764 476.953 282.777Z" fill="#041426"/>
<path d="M466.038 279.412C466.174 279.396 466.3 279.322 466.381 279.199C466.525 278.979 466.465 278.686 466.245 278.541C466.179 278.5 464.62 277.485 462.497 277.821C462.237 277.863 462.059 278.104 462.101 278.363C462.14 278.623 462.395 278.801 462.644 278.759C464.4 278.484 465.707 279.328 465.72 279.336C465.82 279.398 465.93 279.422 466.038 279.412Z" fill="#041426"/>
<path d="M467.765 287.832C466.444 287.476 466.114 286.414 466.138 285.827C466.143 285.725 466.185 285.628 466.258 285.557C467.631 284.223 467.755 282.059 467.755 282.035C467.765 281.815 467.954 281.645 468.174 281.655C468.392 281.665 468.565 281.852 468.554 282.074C468.549 282.174 468.428 284.446 466.945 286.003C466.987 286.325 467.23 287.064 468.515 287.148C468.74 287.164 468.903 287.353 468.889 287.573C468.874 287.793 468.685 287.961 468.465 287.948C468.208 287.929 467.975 287.89 467.765 287.832Z" fill="#DA706C"/>
<path d="M463.928 289.677L470.155 290.967C470.155 290.967 467.823 292.497 466.135 292.243C464.444 291.989 463.928 289.677 463.928 289.677Z" fill="#F9F9FB"/>
<path d="M476.229 336.386C482.04 336.386 484.461 330.578 484.485 330.52C484.53 330.41 484.477 330.284 484.367 330.24C484.257 330.195 484.131 330.248 484.087 330.358C484.063 330.413 481.746 335.956 476.229 335.956C470.692 335.956 468.561 331.93 468.54 331.891C468.485 331.786 468.357 331.744 468.252 331.797C468.147 331.852 468.105 331.98 468.157 332.087C468.178 332.127 470.432 336.386 476.229 336.386Z" fill="#809AEB"/>
<path d="M450.192 328.667C450.299 328.667 450.391 328.586 450.404 328.479C450.409 328.439 450.907 324.56 453.91 321.735C453.997 321.654 454.002 321.518 453.921 321.431C453.84 321.345 453.703 321.339 453.617 321.421C450.498 324.356 449.998 328.261 449.979 328.426C449.966 328.544 450.05 328.652 450.168 328.665C450.176 328.665 450.184 328.667 450.192 328.667Z" fill="#809AEB"/>
<path d="M470.868 359.997C470.868 359.404 470.672 358.851 470.394 358.377C470.116 357.863 469.723 357.467 469.249 357.114C468.617 356.718 467.904 356.482 467.115 356.482C466.009 356.482 464.982 356.956 464.311 357.745C463.837 358.22 463.519 358.851 463.402 359.522C463.362 359.761 463.323 359.997 463.323 360.272C463.323 360.903 463.48 361.498 463.758 362.012C463.876 362.29 464.036 362.526 464.232 362.722C464.903 363.55 465.97 364.067 467.118 364.067C468.462 364.067 469.608 363.393 470.279 362.368C470.674 361.776 470.91 361.024 470.91 360.272C470.908 360.193 470.908 360.075 470.868 359.997ZM467.113 362.366C466.955 362.366 466.837 362.366 466.678 362.326C465.729 362.13 465.019 361.26 465.019 360.272C465.019 360.036 465.058 359.837 465.136 359.64C465.254 359.284 465.454 358.969 465.729 358.77C466.085 358.416 466.599 358.217 467.113 358.217C467.152 358.217 467.152 358.217 467.191 358.217C468.179 358.256 468.968 358.969 469.128 359.879C469.167 359.997 469.167 360.156 469.167 360.272C469.167 361.38 468.297 362.326 467.191 362.368C467.155 362.366 467.155 362.366 467.113 362.366Z" fill="#BFD0F5"/>
<path d="M507.885 324.788C507.885 324.788 515.887 335.67 516.642 339.009C518.188 345.862 492.024 356.66 492.024 356.66L488.292 354.053C488.292 354.053 503.493 339.481 503.105 338.322C502.717 337.161 497.895 331.112 497.895 331.112L507.885 324.788Z" fill="#EDA792"/>
<path d="M458.408 387.319C480.802 386.998 498.689 368.064 498.36 345.027C498.03 321.991 479.609 303.575 457.215 303.896C434.821 304.216 416.935 323.15 417.264 346.187C417.593 369.224 436.014 387.639 458.408 387.319Z" fill="#5F05D2"/>
<path d="M460.103 341.947C453.496 339.229 450.637 337.214 450.589 333.186C450.542 330.046 452.699 326.44 458.554 326.345C460.708 326.345 462.538 326.626 463.99 327.095C464.645 327.284 465.208 327.47 465.677 327.703C466.707 328.078 467.504 328.547 468.115 328.874L468.301 328.361L469.942 323.722C467.74 322.409 464.6 321.19 460.056 321.098L459.961 313.556L455.228 313.603L455.37 321.287V321.476C452.463 321.989 450.029 323.161 448.155 324.849C446.813 326.018 445.898 327.512 445.217 329.131C444.918 329.758 444.666 330.363 444.499 330.892C444.451 330.94 444.404 330.987 444.404 331.081C444.171 332.067 444.077 333.144 444.077 334.221C444.171 341.014 448.996 344.529 456.775 347.529C462.443 349.778 465.444 352.401 465.491 356.666C465.539 359.758 463.851 362.243 460.991 363.461C459.726 364.117 458.226 364.444 456.588 364.444C455.697 364.444 454.806 364.397 453.918 364.303C452.932 364.161 451.997 363.975 451.106 363.742C448.996 363.131 447.122 362.29 445.623 361.257L443.843 366.504C445.67 367.77 448.294 368.8 451.153 369.316C451.433 369.411 451.716 369.458 451.997 369.458C453.121 369.694 454.34 369.785 455.511 369.785L455.558 371.801L455.606 377.658L460.386 377.564L460.339 373.722V372.925L460.292 369.971V369.458C460.947 369.363 461.558 369.177 462.118 369.036C462.726 368.847 463.29 368.614 463.851 368.378C463.945 368.378 464.039 368.333 464.084 368.286C464.881 367.959 465.63 367.537 466.285 367.068C467.737 366.129 468.909 364.913 469.847 363.553C471.346 361.349 472.096 358.728 472.049 356.055C471.957 349.115 467.976 345.087 460.103 341.947Z" fill="white"/>
<path d="M427.651 312.581C427.651 312.581 431.119 317.872 430.437 318.451C429.756 319.033 426.136 315.55 426.173 315.623C426.207 315.697 429.376 319.948 428.744 321.033C428.112 322.115 424.129 317.922 424.129 317.922C424.129 317.922 427.392 321.693 426.92 322.411C426.446 323.129 422.926 319.861 422.695 320.097C422.462 320.333 425.701 322.912 425.151 323.829C424.603 324.747 419.899 321.284 419.991 320.081C420.082 318.876 421.306 318.708 421.306 318.708C421.306 318.708 421.681 316.706 422.761 316.42C422.761 316.42 424.215 314.046 425.376 314.478C425.374 314.476 425.688 312.059 427.651 312.581Z" fill="#EDA792"/>
<path d="M171.321 307.226C171.321 307.226 174.251 308.406 178.814 307.441C178.814 307.441 192.104 312.3 191.889 316.25C191.889 316.25 192.539 317.387 186.556 317.453C180.575 317.518 171.282 317.746 171.025 317.621C170.771 317.5 168.417 316.077 171.321 307.226Z" fill="#041426"/>
<path d="M99.8495 169.77C99.8495 169.77 99.1785 174.705 98.5391 176.437C97.9022 178.167 98.5653 180.316 97.4986 180.305C96.4293 180.295 96.2406 176.751 96.2406 176.751C96.2406 176.751 93.4809 179.294 92.7523 180.203C92.0237 181.115 90.3044 182.41 89.5994 181.93C88.8892 181.451 92.6999 177.32 92.6999 177.32C92.6999 177.32 89.1513 180.484 88.4043 180.177C87.6548 179.873 91.5782 175.189 91.5782 175.189C91.5782 175.189 87.9588 178.743 87.432 178.777C86.9052 178.806 86.8449 178.135 87.8199 176.563C88.7975 174.993 90.1996 173.641 90.1996 173.641C90.1996 173.641 87.4687 175.952 87.0468 176.112C86.6196 176.277 85.9198 176.191 87.6102 174.018C89.298 171.843 93.722 167.744 96.7648 166.591L99.8495 169.77Z" fill="#F9A58F"/>
<path d="M178.814 307.441L180.855 294.492L171.198 293.567L171.339 308.246C171.342 308.248 176.982 309.326 178.814 307.441Z" fill="#F9A58F"/>
<path d="M139.482 305.455L144.493 293.341L135.32 290.186L132.031 304.493C132.028 304.493 137.259 306.857 139.482 305.455Z" fill="#F9A58F"/>
<path d="M132.247 303.494C132.247 303.494 134.821 305.326 139.483 305.457C139.483 305.457 151.269 313.286 150.142 317.075C150.142 317.075 150.504 318.333 144.672 316.997C138.841 315.663 129.752 313.713 129.532 313.535C129.314 313.354 127.354 311.422 132.247 303.494Z" fill="#041426"/>
<path d="M206.518 208.641C207.491 208.196 207.543 206.125 208.576 205.861C209.089 205.523 209.614 205.19 210.148 204.888C210.481 204.702 210.822 204.566 211.165 204.459C210.35 203.617 209.184 202.158 209.184 202.158C209.184 202.158 213.414 204.731 213.511 203.722C213.61 202.713 210.657 200.703 209.076 199.961C207.493 199.217 202.456 197.396 202.456 197.396L199.628 200.831C200.375 203.468 202.254 206.128 204.005 207.934C204.469 207.517 205.944 208.904 206.518 208.641Z" fill="#F9A58F"/>
<path d="M166.396 206.351C166.396 206.351 180.26 238.7 181.79 253.722C183.321 268.745 182.128 301.733 182.128 301.733L168.521 302.208C168.521 302.208 168.065 263.582 165.342 252.789C162.619 241.994 150.265 224 149.596 224.023C148.928 224.047 156.927 274.021 145.505 301.896C145.505 301.896 131.125 299.382 131.756 298.355C132.393 297.328 137.273 274.039 134.285 255.714C131.303 237.392 123.115 204.509 123.702 202.142C124.284 199.781 166.396 206.351 166.396 206.351Z" fill="#041426"/>
<path d="M160.613 136.43C160.613 136.43 145.337 131.029 134.387 134.095C123.437 137.156 100.631 155.712 92.9385 165.697L100.565 172.983C100.565 172.983 121.712 154.972 128.309 156.752C128.309 156.752 120.313 191.541 119.464 205.643C119.464 205.643 146.529 213.073 168.117 207.627C168.117 207.627 167.163 170.836 169.165 170.585C171.167 170.331 178.768 189.719 198.358 203.78L206.341 195.682C206.341 195.682 186.093 175.507 181.284 162.607C176.477 149.71 173.599 139.09 160.613 136.43Z" fill="#5F05D2"/>
<path d="M173.228 124.686C173.228 124.686 174.581 123.821 175 124.6C176.072 126.594 173.716 127.504 172.468 127.386L173.228 124.686Z" fill="#D87464"/>
<path d="M175.586 120.333L175.573 120.33C175.636 120.205 175.698 120.079 175.756 119.95C178.29 114.216 175.489 107.475 169.505 105.284C164.521 103.46 158.854 105.562 156.265 110.201C155.306 111.92 154.866 113.765 154.873 115.574C154.766 118.315 154.695 120.669 154.821 122.71C155.033 126.086 153.034 131.215 151.17 134.035C156.021 141.994 160.613 136.43 160.613 136.43L161.648 134.297C161.918 133.728 162.576 133.466 163.163 133.684C163.166 133.686 163.171 133.686 163.174 133.689C170.997 136.553 174.074 123.759 175.586 120.333Z" fill="#F9A58F"/>
<path d="M162.992 121.025C163.218 120.511 162.985 119.911 162.471 119.686C161.957 119.46 161.36 119.691 161.134 120.205C160.906 120.718 161.137 121.318 161.651 121.541C162.167 121.769 162.764 121.539 162.992 121.025Z" fill="#050521"/>
<path d="M171.976 123.022C172.204 122.508 171.973 121.908 171.459 121.685C170.946 121.457 170.345 121.688 170.123 122.202C169.895 122.715 170.125 123.315 170.639 123.538C171.153 123.766 171.753 123.536 171.976 123.022Z" fill="#050521"/>
<path d="M160.307 118.105C160.213 118.061 160.129 117.995 160.063 117.904C159.872 117.636 159.937 117.261 160.207 117.075C161.017 116.504 162.975 115.941 164.595 117.901C164.802 118.152 164.765 118.53 164.513 118.74C164.262 118.947 163.884 118.91 163.675 118.658C162.349 117.052 160.949 118.006 160.891 118.048C160.713 118.171 160.493 118.187 160.307 118.105Z" fill="#050521"/>
<path d="M169.654 120.506C169.56 120.461 169.473 120.396 169.408 120.304C169.219 120.037 169.282 119.662 169.555 119.476C170.365 118.905 172.322 118.341 173.939 120.302C174.149 120.553 174.112 120.931 173.861 121.14C173.609 121.347 173.232 121.311 173.022 121.059C171.691 119.452 170.296 120.406 170.236 120.448C170.06 120.569 169.838 120.587 169.654 120.506Z" fill="#050521"/>
<path d="M154.607 111.417L154.329 119.363L156.305 119.804L161.24 111.577L154.607 111.417Z" fill="#0B0755"/>
<path d="M156.676 119.715C156.66 119.321 156.485 118.949 156.212 118.666C155.646 118.084 154.564 117.243 153.358 117.707C151.592 118.391 152.619 122.728 155.772 122.194C155.772 122.194 156.776 121.806 156.676 119.715Z" fill="#F9A58F"/>
<path d="M166.276 126.5C165.194 126.542 164.612 125.711 164.607 125.698C164.552 125.619 164.57 125.509 164.654 125.454C164.735 125.399 164.842 125.417 164.897 125.498C164.926 125.538 165.576 126.452 166.819 126.038C167.02 125.973 167.141 125.899 167.183 125.821C167.235 125.711 167.167 125.512 167.068 125.231C166.85 124.589 166.478 123.512 167.018 121.696C167.047 121.601 167.146 121.549 167.238 121.578C167.332 121.607 167.385 121.704 167.356 121.798C166.85 123.507 167.18 124.476 167.403 125.118C167.524 125.464 167.618 125.737 167.497 125.978C167.413 126.151 167.235 126.274 166.929 126.374C166.695 126.452 166.478 126.489 166.276 126.5Z" fill="#D87464"/>
<path d="M161.782 126.534C161.782 126.534 165.367 128.675 168.26 128.62C168.26 128.62 166.376 131.27 164.072 130.528C161.766 129.786 161.782 126.534 161.782 126.534Z" fill="white"/>
<path d="M175.696 115.749C175.696 115.749 176.684 117.39 174.356 123.601C174.356 123.601 177.829 117.065 177.407 115.99C176.985 114.916 175.696 115.749 175.696 115.749Z" fill="#0B0755"/>
<path d="M154.91 108.927C155.557 107.449 156.705 106.249 157.903 105.174C157.148 105.035 156.317 104.841 155.874 104.212C155.434 103.581 155.811 102.438 156.577 102.517C157.02 102.561 157.329 102.975 157.732 103.167C158.652 103.604 159.677 102.8 160.277 101.977C160.88 101.151 161.493 100.153 162.502 100.014C162.819 99.9719 163.15 100.027 163.435 100.161C163.304 101.356 162.759 102.496 161.92 103.347C163.519 102.302 165.335 101.584 167.217 101.248C168.685 100.989 170.315 100.997 171.518 101.875C171.455 103.059 169.471 103.002 168.887 104.032C171.489 104.197 174.068 104.763 176.5 105.704C177.129 105.947 177.761 106.223 178.243 106.689C178.73 107.153 179.05 107.845 178.903 108.5C178.712 109.362 177.651 109.905 176.841 109.556C177.886 110.518 178.943 111.496 179.703 112.693C180.465 113.891 180.911 115.356 180.612 116.745C179.705 116.467 178.872 115.951 178.222 115.262C178.602 115.941 178.827 116.858 178.327 117.458C177.96 117.904 177.297 118.008 176.736 117.869C176.175 117.728 175.69 117.387 175.221 117.049C172.844 115.353 170.47 113.66 168.092 111.962C168.771 113.411 169.083 115.031 168.981 116.63C166.669 115.581 164.672 113.839 163.325 111.682C162.743 112.746 162.01 113.723 161.153 114.583C161.016 114.719 160.87 114.855 160.681 114.892C160.054 115.013 159.876 114.082 159.512 113.553C159.069 112.908 158.136 112.832 157.368 112.982C156.042 113.238 154.975 113.888 154.532 112.277C154.236 111.197 154.464 109.936 154.91 108.927Z" fill="#0B0755"/>
<path d="M211.841 205.022C211.841 205.022 208.361 201.898 207.858 202.331C207.36 202.763 209.501 205.798 209.451 205.764C209.404 205.73 206.647 202.941 205.785 203.279C204.922 203.623 207.546 207.001 207.546 207.001C207.546 207.001 205.15 204.194 204.576 204.461C203.997 204.726 205.994 207.664 205.795 207.808C205.598 207.952 204.071 205.297 203.342 205.596C202.611 205.898 204.616 209.719 205.507 209.787C206.398 209.852 206.657 208.977 206.657 208.977C206.657 208.977 208.164 208.925 208.494 208.167C208.494 208.167 210.392 207.368 210.206 206.472C210.203 206.474 212.004 206.513 211.841 205.022Z" fill="#D87464"/>
<path d="M287.578 214.659C287.233 190.429 267.859 171.056 244.303 171.392C220.748 171.727 201.933 191.64 202.276 215.872C202.622 240.102 221.995 259.475 245.551 259.139C269.107 258.804 287.924 238.891 287.578 214.659Z" fill="#5F05D2"/>
<path d="M247.355 211.401C243.696 209.881 241.148 208.605 239.545 207.126C239.379 207.003 239.256 206.88 239.133 206.715C237.941 205.441 237.367 204.044 237.325 202.194C237.283 198.908 239.545 195.084 245.667 195.002C250.804 194.921 254.093 196.688 255.778 197.673L257.668 192.206C255.366 190.851 252.077 189.577 247.271 189.494L247.189 181.521H246.12L242.215 181.602L242.296 185.754L242.338 189.905C235.024 191.221 230.38 196.439 230.503 203.263C230.503 204.825 230.791 206.222 231.284 207.454C231.326 207.661 231.407 207.824 231.488 208.031C233.338 212.221 237.736 214.895 243.858 217.277C249.776 219.659 252.942 222.374 252.981 226.893C253.065 231.579 249.284 234.988 243.612 235.072C239.172 235.153 234.982 233.633 232.104 231.702L230.338 237.043L230.256 237.248C233.092 239.26 237.901 240.66 242.503 240.66L242.627 248.963L247.64 248.881L247.517 240.332C249.86 239.921 251.915 239.098 253.6 237.989C257.833 235.319 259.971 230.879 259.929 226.235C259.809 218.923 255.618 214.729 247.355 211.401Z" fill="white"/>
</svg>
