<svg width="48" height="32" viewBox="0 0 48 32" fill="none" xmlns="http://www.w3.org/2000/svg">
<g clip-path="url(#clip0_2539_4468)">
<path d="M0 7.94744L25.758 0L44.4338 11.4619L18.8447 19.1031L0 7.94744Z" fill="#B800CC"/>
<path d="M0 8.79292L4.63927 11.4893L9.25571 14.2222C12.3379 16.0366 15.3881 17.9012 18.4521 19.7475L18.2603 19.7201C20.4338 19.0711 22.6073 18.445 24.79 17.8235L31.3242 15.9452L37.8721 14.1171L41.1507 13.2214L44.4338 12.3393L41.1918 13.3585L37.9452 14.3685L31.4384 16.3473L24.9178 18.2759C22.7443 18.9203 20.5708 19.5601 18.3927 20.1817L18.2877 20.2137L18.1963 20.1588C15.1507 18.2805 12.0913 16.4296 9.06393 14.5239L4.51598 11.6767L0 8.79292Z" fill="#B800CC"/>
<path d="M5.91309 13.1894V24.0937C5.91309 24.0937 7.60258 30.7752 18.3286 31.872C29.0546 32.9734 38.0912 26.886 39.1049 22.91V14.9626L18.2419 20.7941L5.91309 13.1894Z" fill="#B800CC"/>
<path d="M47.9772 27.5578C46.9087 26.164 46.3516 24.3222 45.9132 22.645C45.6393 21.603 45.4064 20.5381 45.3607 19.4642C45.3561 19.3042 45.3607 19.1397 45.3653 18.9797C45.3698 18.9477 45.3744 18.9203 45.3744 18.8883C45.379 18.8518 45.3744 18.8243 45.3653 18.7969C45.3744 18.5775 45.3927 18.3582 45.4109 18.1388C45.4246 18.1297 45.4429 18.1205 45.4566 18.1114C46.0685 17.6224 46.5297 16.2788 45.8402 15.6709C45.8265 15.6618 45.8173 15.6527 45.8036 15.6481C46.3607 14.7843 46.7032 13.8932 46.1324 12.8786C44.8721 10.653 41.6849 9.99943 39.379 10.7444C39.3151 10.7626 39.2648 10.822 39.2831 10.8906C39.3059 10.9774 39.3151 10.982 39.3881 11.0414C39.4566 11.1008 39.5571 10.9866 39.5114 10.918C39.6347 11.11 40.8265 10.8769 41.1004 10.8815C41.6667 10.8952 42.2374 11.2334 42.7945 11.3293C44.2146 11.5761 45.7123 12.545 45.7351 14.1262C45.7443 14.6107 45.6027 15.0357 45.3972 15.4379C44.8128 15.2688 44.0913 15.5293 43.6164 15.8492C42.9132 16.3245 42.4566 17.2385 42.9954 17.988C42.895 18.1251 42.7945 18.2622 42.6941 18.3947C42.0137 19.2722 41.5388 20.2685 41.1644 21.3105C40.3835 23.4813 40.7123 25.5653 41.3972 27.6858C41.4292 27.7818 41.5571 27.7041 41.5388 27.6218C41.105 25.7389 40.9132 24.1348 41.2968 22.2702C40.8265 24.9163 41.3059 27.7361 42.8676 29.8612C42.9543 29.9754 43.1141 29.8703 43.1233 29.7561C43.4064 30.1719 43.7078 30.5421 44.0365 30.8529C44.137 30.9489 44.3288 30.7524 44.242 30.6518C43.4886 29.8018 42.9726 28.7141 42.6119 27.5761C42.6256 27.5715 42.6393 27.5578 42.6484 27.5441C42.9406 28.2571 43.3196 28.906 43.7854 29.4362C44.0913 29.9709 44.4246 30.4781 44.7717 30.9169C44.8813 31.054 45.0867 30.8712 45.0046 30.7341C44.863 30.4827 44.7351 30.2268 44.6027 29.9663C44.7306 30.1628 44.8676 30.3548 45.0137 30.533C45.0685 30.6015 45.1415 30.6107 45.2055 30.5878C45.379 30.8803 45.5799 31.15 45.831 31.383C45.9726 31.5156 46.1461 31.2733 46.0822 31.1362C45.7351 30.4096 45.452 29.7195 45.2146 29.0111C45.3014 29.0248 45.4155 28.9243 45.4109 28.8283C45.6301 29.2899 45.8767 29.7195 46.1689 30.108C46.2694 30.2359 46.4612 30.0668 46.3881 29.9343C46.3561 29.8749 46.3242 29.8155 46.2922 29.7561C46.4657 29.9526 46.653 30.14 46.8539 30.3136C46.9772 30.4187 47.1598 30.2176 47.0822 30.0897C46.2329 28.7415 45.5297 27.5715 45.0913 26.1228C45.0639 25.972 45.0365 25.8212 45.0137 25.6704C45.4475 27.2242 46.1644 28.6684 47.3881 29.7835C47.484 29.8749 47.6256 29.7058 47.5708 29.6053C47.0867 28.7644 46.5571 27.9509 46.0822 27.1054C46.0137 26.982 45.9498 26.8586 45.8904 26.7306C45.4201 25.2911 45.1826 23.7875 44.9817 22.2839C44.9635 22.1468 44.9543 22.0097 44.9452 21.8726C44.9635 21.7492 44.9817 21.6212 45 21.4979C45.2557 23.3762 45.7397 25.1768 46.726 26.8083C46.7854 26.9135 46.9041 26.8677 46.968 26.7809C47.21 27.1465 47.4794 27.4801 47.7808 27.7681C47.8813 27.8503 48.0593 27.663 47.9772 27.5578Z" fill="#B800CC"/>
</g>
<defs>
<clipPath id="clip0_2539_4468">
<rect width="48" height="32" fill="white"/>
</clipPath>
</defs>
</svg>
