<svg width="31" height="30" viewBox="0 0 31 30" fill="none" xmlns="http://www.w3.org/2000/svg">
<g id="vuesax/linear/star">
<g id="star">
<path id="Vector" d="M17.6626 4.38755L19.8626 8.78755C20.1626 9.40005 20.9626 9.98755 21.6376 10.1L25.6251 10.7625C28.1751 11.1875 28.7751 13.0375 26.9376 14.8625L23.8376 17.9625C23.3126 18.4875 23.0251 19.5 23.1876 20.225L24.0751 24.0625C24.7751 27.1 23.1626 28.275 20.4751 26.6875L16.7376 24.475C16.0626 24.075 14.9501 24.075 14.2626 24.475L10.5251 26.6875C7.85013 28.275 6.22513 27.0875 6.92513 24.0625L7.81263 20.225C7.97513 19.5 7.68763 18.4875 7.16263 17.9625L4.06263 14.8625C2.23763 13.0375 2.82513 11.1875 5.37513 10.7625L9.36263 10.1C10.0251 9.98755 10.8251 9.40005 11.1251 8.78755L13.3251 4.38755C14.5251 2.00005 16.4751 2.00005 17.6626 4.38755Z" fill="#F3C32F"/>
</g>
</g>
</svg>
