<svg width="25" height="21" viewBox="0 0 25 21" fill="none" xmlns="http://www.w3.org/2000/svg">
<path d="M25 2.49454C24.0806 2.9046 23.0802 3.19972 22.0496 3.31466C23.1196 2.65743 23.9208 1.61912 24.303 0.394539C23.299 1.01208 22.1991 1.44511 21.0522 1.67442C20.5728 1.14453 19.993 0.722399 19.3489 0.434326C18.7049 0.146252 18.0104 -0.00158986 17.3086 1.28933e-05C14.4694 1.28933e-05 12.186 2.3796 12.186 5.29971C12.186 5.70977 12.2341 6.11983 12.3122 6.51436C8.06093 6.28448 4.26932 4.18448 1.74859 0.969243C1.28928 1.7804 1.04859 2.704 1.05156 3.64394C1.05156 5.483 1.95589 7.10459 3.33494 8.05829C2.52225 8.0252 1.72859 7.79423 1.01851 7.38418V7.44942C1.01851 10.0247 2.77911 12.1589 5.12559 12.6497C4.68501 12.768 4.23178 12.8286 3.77659 12.8299C3.4431 12.8299 3.12763 12.7957 2.80916 12.7491C3.45812 14.8491 5.34791 16.3744 7.59825 16.4241C5.83764 17.85 3.63238 18.6888 1.23783 18.6888C0.808196 18.6888 0.411609 18.6732 0 18.6235C2.27136 20.1302 4.96635 21 7.86865 21C17.2906 21 22.4462 12.9293 22.4462 5.92412C22.4462 5.69424 22.4462 5.46436 22.4312 5.23448C23.4287 4.4796 24.303 3.54454 25 2.49454Z" fill="white"/>
</svg>
